<?xml version="1.0" encoding="utf-8"?>
<!-- Generator: Adobe Illustrator 22.1.0, SVG Export Plug-In . SVG Version: 6.00 Build 0)  -->
<svg version="1.1" id="Layer_1" xmlns="http://www.w3.org/2000/svg" xmlns:xlink="http://www.w3.org/1999/xlink" x="0px" y="0px"
	 viewBox="0 0 1828 559.8" style="enable-background:new 0 0 1828 559.8;" xml:space="preserve">
<style type="text/css">
	.st0{fill-rule:evenodd;clip-rule:evenodd;fill:url(#SVGID_1_);}
	.st1{fill:none;stroke:url(#SVGID_2_);stroke-miterlimit:10;stroke-dasharray:11.9422,11.9422;}
	.st2{fill:#D0CDCD;}
	.st3{fill:#F0F0F0;}
	.st4{fill:url(#screen_6_);}
	.st5{opacity:0.335;fill:#DDDDDD;stroke:#CCCACA;stroke-width:2;enable-background:new    ;}
	.st6{fill:#9E9E9E;}
	.st7{fill:#999999;}
	.st8{fill:#C1C1C1;}
	.st9{clip-path:url(#screen_9_);}
	.st10{fill:none;stroke:#2461BA;stroke-width:2;stroke-linecap:round;stroke-linejoin:round;stroke-miterlimit:10;}
	.st11{fill:none;stroke:#35A8E0;stroke-linecap:round;stroke-linejoin:round;stroke-miterlimit:10;}
	.st12{fill:none;stroke:#FFFFFF;stroke-linecap:round;stroke-linejoin:round;stroke-miterlimit:10;}
	
		.st13{fill:none;stroke:#F4A01E;stroke-width:2;stroke-linecap:round;stroke-linejoin:round;stroke-miterlimit:10;stroke-dasharray:8;}
	.st14{fill:none;stroke:#E5007E;stroke-linecap:round;stroke-linejoin:round;stroke-miterlimit:10;}
	.st15{fill:none;stroke:#FFEC00;stroke-linecap:round;stroke-linejoin:round;stroke-miterlimit:10;}
	.st16{fill:#FFFFFF;}
	.st17{fill:#EC1A3B;}
	.st18{opacity:0.7;clip-path:url(#screen_9_);}
	.st19{clip-path:url(#SVGID_4_);}
	.st20{clip-path:url(#SVGID_6_);}
	.st21{clip-path:url(#SVGID_8_);}
	.st22{clip-path:url(#SVGID_10_);}
	.st23{clip-path:url(#SVGID_12_);}
	.st24{clip-path:url(#SVGID_14_);}
	.st25{clip-path:url(#SVGID_16_);}
	.st26{clip-path:url(#SVGID_18_);}
	.st27{clip-path:url(#SVGID_20_);}
	.st28{clip-path:url(#SVGID_22_);}
	.st29{clip-path:url(#SVGID_24_);}
	.st30{clip-path:url(#SVGID_26_);}
	.st31{clip-path:url(#SVGID_28_);}
	.st32{clip-path:url(#SVGID_30_);}
	.st33{clip-path:url(#SVGID_32_);}
	.st34{clip-path:url(#SVGID_34_);}
	.st35{clip-path:url(#SVGID_36_);}
	.st36{fill-rule:evenodd;clip-rule:evenodd;fill:#FFFFFF;enable-background:new    ;}
	.st37{fill-rule:evenodd;clip-rule:evenodd;fill:none;stroke:#FFFFFF;stroke-miterlimit:10;enable-background:new    ;}
	.st38{fill:#611A85;}
	.st39{fill:none;stroke:#611A85;stroke-width:2;stroke-miterlimit:10;}
	.st40{fill:#2461BA;}
	.st41{opacity:0.9;fill:#0E2446;}
	.st42{fill-rule:evenodd;clip-rule:evenodd;fill:#2461BA;}
	.st43{fill:#FBAE17;}
	.st44{fill-rule:evenodd;clip-rule:evenodd;fill:#FFFFFF;}
	.st45{fill-rule:evenodd;clip-rule:evenodd;fill:#FBAE17;}
	.st46{fill-rule:evenodd;clip-rule:evenodd;fill:#EC1A3B;}
	.st47{fill:#00CE8C;}
	.st48{fill-rule:evenodd;clip-rule:evenodd;fill:#00CE8C;}
	.st49{clip-path:url(#SVGID_38_);fill-rule:evenodd;clip-rule:evenodd;fill:url(#SVGID_39_);}
	.st50{opacity:0.38;clip-path:url(#SVGID_38_);}
	.st51{fill-rule:evenodd;clip-rule:evenodd;fill:url(#SVGID_40_);}
	.st52{fill:#002B59;}
	.st53{opacity:0.6;fill:#FFFFFF;}
	.st54{fill:url(#screen_10_);enable-background:new    ;}
	.st55{clip-path:url(#screen_11_);}
	.st56{clip-path:url(#screen_12_);}
	.st57{clip-path:url(#screen_13_);}
	.st58{clip-path:url(#screen_14_);}
	.st59{opacity:0.5;}
	.st60{opacity:0.43;}
	.st61{fill-rule:evenodd;clip-rule:evenodd;fill:url(#SVGID_41_);}
	.st62{opacity:0.54;}
	.st63{fill:#2B3A60;}
	.st64{fill:#252E49;}
	.st65{opacity:0.46;fill-rule:evenodd;clip-rule:evenodd;fill:#F9F9F9;}
	.st66{fill:#ADADAD;}
	.st67{fill:url(#SVGID_42_);}
	.st68{fill:#FFB549;}
	.st69{fill-rule:evenodd;clip-rule:evenodd;fill:url(#SVGID_43_);}
	.st70{opacity:0.1;fill:#00C9EA;}
	.st71{fill:#FFFFFF;fill-opacity:0;}
	.st72{fill:url(#path68_2_);}
	.st73{fill:url(#path70_2_);}
	.st74{fill:url(#path72_2_);}
	.st75{fill:url(#path74_2_);}
	.st76{opacity:0.2;enable-background:new    ;}
	.st77{opacity:0.12;enable-background:new    ;}
	.st78{opacity:0.25;fill:#FFFFFF;enable-background:new    ;}
	.st79{fill:#FFFFFF;stroke:#FFFFFF;stroke-width:0.2725;stroke-miterlimit:10;}
	.st80{fill-rule:evenodd;clip-rule:evenodd;fill:#567DBF;}
	.st81{fill-rule:evenodd;clip-rule:evenodd;fill:#FDB515;}
	.st82{fill:#00005E;stroke:#02B3C6;stroke-width:2;stroke-linecap:round;stroke-linejoin:round;stroke-miterlimit:10;}
	.st83{fill:url(#SVGID_48_);stroke:#FFFFFF;stroke-linecap:round;stroke-linejoin:round;stroke-miterlimit:10;}
	.st84{opacity:0.32;fill:url(#SVGID_49_);}
	.st85{fill:#00005E;}
	.st86{opacity:0.52;fill:#00005E;stroke:#02B3C6;stroke-width:2;stroke-linecap:round;stroke-linejoin:round;stroke-miterlimit:10;}
	.st87{opacity:0.47;fill:#0214A3;}
	.st88{fill:url(#SVGID_50_);}
	.st89{fill:none;stroke:#FFFFFF;stroke-width:3;stroke-linecap:round;stroke-linejoin:round;stroke-miterlimit:10;}
	.st90{fill:#0000A5;stroke:#FFFFFF;stroke-width:2;stroke-linecap:round;stroke-linejoin:round;stroke-miterlimit:10;}
	.st91{fill:url(#SVGID_51_);}
	.st92{fill:#02B3C6;}
	.st93{fill:none;stroke:url(#SVGID_52_);stroke-width:3;stroke-linecap:round;stroke-linejoin:round;stroke-miterlimit:10;}
	.st94{fill:#0214A3;}
	.st95{fill:none;stroke:#02B3C6;stroke-width:4;stroke-linecap:round;stroke-linejoin:round;stroke-miterlimit:10;}
	.st96{fill:#A5A5A5;}
	.st97{fill:url(#SVGID_53_);}
	.st98{opacity:0.15;fill:#FFFFFF;}
	.st99{fill-rule:evenodd;clip-rule:evenodd;fill:none;stroke:#2B3A60;stroke-width:5;stroke-miterlimit:10;}
	.st100{fill-rule:evenodd;clip-rule:evenodd;fill:#2B3A60;}
	.st101{fill:#C600A1;}
	.st102{fill-rule:evenodd;clip-rule:evenodd;fill:none;stroke:#2B3A60;stroke-width:3;stroke-miterlimit:10;}
	.st103{fill:none;stroke:#2B3A60;stroke-width:5;stroke-linecap:round;stroke-linejoin:round;stroke-miterlimit:10;}
	.st104{fill:url(#SVGID_58_);}
	.st105{fill:#472F00;}
	.st106{fill-rule:evenodd;clip-rule:evenodd;fill:#FFB000;}
	.st107{opacity:0.22;}
	.st108{fill:#DD7800;}
	.st109{opacity:0.78;}
	.st110{fill-rule:evenodd;clip-rule:evenodd;fill:url(#SVGID_59_);}
	.st111{fill-rule:evenodd;clip-rule:evenodd;fill:url(#SVGID_60_);}
	.st112{fill-rule:evenodd;clip-rule:evenodd;fill:url(#SVGID_61_);}
	.st113{fill:url(#SVGID_62_);}
	.st114{opacity:0.17;}
	.st115{fill-rule:evenodd;clip-rule:evenodd;fill:url(#SVGID_63_);}
	.st116{fill-rule:evenodd;clip-rule:evenodd;fill:url(#SVGID_64_);}
	.st117{fill-rule:evenodd;clip-rule:evenodd;fill:url(#SVGID_65_);}
	.st118{fill-rule:evenodd;clip-rule:evenodd;fill:url(#SVGID_66_);}
	.st119{fill-rule:evenodd;clip-rule:evenodd;fill:url(#SVGID_67_);}
	.st120{fill-rule:evenodd;clip-rule:evenodd;fill:url(#SVGID_68_);}
	.st121{fill-rule:evenodd;clip-rule:evenodd;fill:url(#SVGID_69_);}
	.st122{fill-rule:evenodd;clip-rule:evenodd;fill:url(#SVGID_70_);}
	.st123{fill-rule:evenodd;clip-rule:evenodd;fill:url(#SVGID_71_);}
	.st124{fill-rule:evenodd;clip-rule:evenodd;fill:url(#SVGID_72_);}
	.st125{fill-rule:evenodd;clip-rule:evenodd;fill:url(#SVGID_73_);}
	.st126{fill-rule:evenodd;clip-rule:evenodd;fill:url(#SVGID_74_);}
	.st127{fill-rule:evenodd;clip-rule:evenodd;fill:url(#SVGID_75_);}
	.st128{fill:#50535B;}
	.st129{fill-rule:evenodd;clip-rule:evenodd;fill:url(#SVGID_76_);}
	.st130{fill-rule:evenodd;clip-rule:evenodd;fill:url(#SVGID_77_);}
	.st131{fill-rule:evenodd;clip-rule:evenodd;fill:url(#SVGID_78_);}
	.st132{fill:url(#SVGID_79_);}
	.st133{fill:url(#SVGID_80_);}
	.st134{fill:url(#SVGID_81_);}
	.st135{fill-rule:evenodd;clip-rule:evenodd;fill:url(#SVGID_82_);}
	.st136{clip-path:url(#SVGID_84_);}
	.st137{fill:url(#SVGID_85_);}
	.st138{fill:url(#SVGID_86_);}
	.st139{fill-rule:evenodd;clip-rule:evenodd;fill:url(#SVGID_87_);}
	.st140{fill-rule:evenodd;clip-rule:evenodd;fill:url(#SVGID_88_);}
	.st141{fill-rule:evenodd;clip-rule:evenodd;fill:none;stroke:url(#SVGID_89_);stroke-width:0.25;stroke-miterlimit:10;}
	.st142{fill-rule:evenodd;clip-rule:evenodd;fill:none;stroke:url(#SVGID_90_);stroke-width:0.25;stroke-miterlimit:10;}
	.st143{fill-rule:evenodd;clip-rule:evenodd;fill:none;stroke:url(#SVGID_91_);stroke-width:0.25;stroke-miterlimit:10;}
	.st144{fill:url(#SVGID_92_);}
	.st145{fill:url(#SVGID_93_);}
	.st146{fill:url(#SVGID_94_);}
	.st147{fill-rule:evenodd;clip-rule:evenodd;fill:url(#SVGID_95_);}
	.st148{fill-rule:evenodd;clip-rule:evenodd;fill:url(#SVGID_96_);}
	.st149{fill-rule:evenodd;clip-rule:evenodd;fill:url(#SVGID_97_);}
	.st150{fill-rule:evenodd;clip-rule:evenodd;fill:#794A17;}
	.st151{fill-rule:evenodd;clip-rule:evenodd;fill:url(#SVGID_98_);}
	.st152{fill-rule:evenodd;clip-rule:evenodd;fill:url(#SVGID_99_);}
	.st153{fill-rule:evenodd;clip-rule:evenodd;fill:url(#SVGID_100_);}
	.st154{fill-rule:evenodd;clip-rule:evenodd;fill:url(#SVGID_101_);}
	.st155{fill-rule:evenodd;clip-rule:evenodd;fill:url(#SVGID_102_);}
	.st156{fill-rule:evenodd;clip-rule:evenodd;fill:url(#SVGID_103_);}
	.st157{fill:#794A17;}
	.st158{clip-path:url(#SVGID_105_);fill-rule:evenodd;clip-rule:evenodd;fill:url(#SVGID_106_);}
	.st159{fill-rule:evenodd;clip-rule:evenodd;fill:url(#SVGID_107_);}
	.st160{fill:#7C7E86;}
	.st161{fill-rule:evenodd;clip-rule:evenodd;fill:#5252A7;}
	.st162{fill:#3F4147;}
	.st163{fill-rule:evenodd;clip-rule:evenodd;fill:#5252A7;stroke:#3F4147;stroke-width:0.2;stroke-miterlimit:10;}
	.st164{fill-rule:evenodd;clip-rule:evenodd;fill:url(#SVGID_108_);}
	.st165{fill-rule:evenodd;clip-rule:evenodd;fill:none;stroke:#FF72BF;stroke-miterlimit:10;}
	.st166{fill-rule:evenodd;clip-rule:evenodd;fill:url(#SVGID_111_);}
	.st167{fill-rule:evenodd;clip-rule:evenodd;fill:url(#SVGID_112_);}
	.st168{fill:url(#SVGID_113_);}
	.st169{fill-rule:evenodd;clip-rule:evenodd;fill:url(#SVGID_114_);}
	.st170{fill-rule:evenodd;clip-rule:evenodd;fill:url(#SVGID_115_);}
	.st171{fill-rule:evenodd;clip-rule:evenodd;fill:url(#SVGID_116_);}
	.st172{fill-rule:evenodd;clip-rule:evenodd;fill:url(#SVGID_117_);}
	.st173{fill-rule:evenodd;clip-rule:evenodd;fill:url(#SVGID_118_);}
	.st174{fill-rule:evenodd;clip-rule:evenodd;fill:url(#SVGID_119_);}
	.st175{fill-rule:evenodd;clip-rule:evenodd;fill:url(#SVGID_120_);}
	.st176{fill:url(#SVGID_121_);}
	.st177{fill-rule:evenodd;clip-rule:evenodd;fill:url(#SVGID_122_);}
	.st178{fill-rule:evenodd;clip-rule:evenodd;fill:url(#SVGID_123_);}
	.st179{fill-rule:evenodd;clip-rule:evenodd;fill:url(#SVGID_124_);}
	.st180{fill-rule:evenodd;clip-rule:evenodd;fill:url(#SVGID_125_);}
	.st181{fill-rule:evenodd;clip-rule:evenodd;fill:url(#SVGID_126_);}
</style>
<g class="st59">
	<g>
		<path class="st44" d="M1558.4,269.5c0,4.3-3.5,7.7-7.7,7.7c-4.3,0-7.7-3.5-7.7-7.7c0-4.3,3.5-7.7,7.7-7.7
			C1555,261.8,1558.4,265.2,1558.4,269.5z"/>
	</g>
	<g>
		<rect x="39.8" y="535.4" class="st44" width="21" height="21"/>
	</g>
	<g>
		<g>
			<polygon class="st44" points="1775.4,161 1771.6,168.7 1786.6,153.7 1785.3,151.1 			"/>
		</g>
		<g>
			<polygon class="st44" points="1788.8,158.1 1787.5,155.6 1768.8,174.3 1764.9,182 			"/>
		</g>
		<g>
			<polygon class="st44" points="1793.2,167 1791.9,164.4 1772.8,183.5 1776.7,183.5 			"/>
		</g>
		<g>
			<polygon class="st44" points="1791,162.5 1789.7,160 1766.2,183.5 1770,183.5 			"/>
		</g>
		<g>
			<polygon class="st44" points="1795.4,171.4 1794.1,168.8 1779.5,183.5 1783.3,183.5 			"/>
		</g>
		<g>
			<polygon class="st44" points="1784.4,149.3 1782.8,146.2 1778.2,155.4 			"/>
		</g>
		<g>
			<polygon class="st44" points="1792.8,183.5 1801.5,183.5 1798.6,177.7 			"/>
		</g>
		<g>
			<polygon class="st44" points="1797.6,175.8 1796.4,173.3 1786.1,183.5 1790,183.5 			"/>
		</g>
	</g>
	<g>
		<g>
			<polygon class="st44" points="645,43.9 640.8,45.3 651.6,45.3 652.1,43.9 			"/>
		</g>
		<g>
			<polygon class="st44" points="650.8,47.7 651.3,46.3 637.8,46.3 633.6,47.7 			"/>
		</g>
		<g>
			<polygon class="st44" points="649.2,52.4 649.7,51.1 635.9,51.1 637.3,52.4 			"/>
		</g>
		<g>
			<polygon class="st44" points="650,50 650.5,48.7 633.5,48.7 634.9,50 			"/>
		</g>
		<g>
			<polygon class="st44" points="648.4,54.8 648.9,53.5 638.3,53.5 639.7,54.8 			"/>
		</g>
		<g>
			<polygon class="st44" points="652.3,41.4 648,42.9 652.3,42.9 			"/>
		</g>
		<g>
			<polygon class="st44" points="643.1,58.3 646.3,61.4 647.3,58.3 			"/>
		</g>
		<g>
			<polygon class="st44" points="647.6,57.2 648.1,55.9 640.7,55.9 642.1,57.2 			"/>
		</g>
	</g>
	<g>
		<polygon class="st16" points="1667.7,468.3 1659.8,468.3 1659.8,461.6 1653.1,461.6 1653.1,454.9 1646.4,454.9 1646.4,448.2 
			1639.8,448.2 1639.8,441.5 1634.2,441.5 1634.2,439.2 1642.1,439.2 1642.1,445.9 1648.8,445.9 1648.8,452.5 1655.5,452.5 
			1655.5,459.2 1662.2,459.2 1662.2,465.9 1667.7,465.9 		"/>
	</g>
	<g>
		<polygon class="st44" points="845.9,255.4 838.5,264.2 833.2,253.3 		"/>
	</g>
	<g>
		<polygon class="st44" points="384.3,302.9 344.2,327.8 339.3,275.3 		"/>
	</g>
	<g>
		<path class="st16" d="M47.7,279.7l1.2-20.5l15.7,13.2L47.7,279.7z M51,264.1L50.3,276l9.8-4.2L51,264.1z"/>
	</g>
	<g>
		<path class="st44" d="M1530.1,34.5c0,7.4-6,13.4-13.4,13.4c-7.4,0-13.4-6-13.4-13.4c0-7.4,6-13.4,13.4-13.4
			C1524.1,21.2,1530.1,27.1,1530.1,34.5z"/>
	</g>
	<g>
		<path class="st16" d="M1130.4,27.6L1112,9.2l27.6-9.2L1130.4,27.6z M1116.4,10.2l13,13l6.5-19.5L1116.4,10.2z"/>
	</g>
	<g>
		<path class="st16" d="M1049.8,507.1l-18.4-18.4l27.6-9.2L1049.8,507.1z M1035.8,489.7l13,13l6.5-19.5L1035.8,489.7z"/>
	</g>
	<g>
		<g>
			
				<rect x="454" y="140.5" transform="matrix(0.7071 -0.7071 0.7071 0.7071 34.5681 366.8904)" class="st16" width="12.3" height="2.4"/>
		</g>
		<g>
			
				<rect x="459" y="135.5" transform="matrix(0.7072 -0.707 0.707 0.7072 34.5473 366.8511)" class="st16" width="2.4" height="12.3"/>
		</g>
	</g>
	<g>
		<g>
			
				<rect x="1269.3" y="513.2" transform="matrix(0.7071 -0.7071 0.7071 0.7071 9.827 1052.5817)" class="st16" width="12.3" height="2.4"/>
		</g>
		<g>
			
				<rect x="1274.3" y="508.3" transform="matrix(0.7071 -0.7071 0.7071 0.7071 9.8003 1052.5187)" class="st16" width="2.4" height="12.3"/>
		</g>
	</g>
	<g>
		<path class="st16" d="M520.4,555.8l-8.9-18.5l20.1,4L520.4,555.8z M515.7,540.6l5.2,10.7l6.5-8.4L515.7,540.6z"/>
	</g>
	<g>
		<path class="st16" d="M1752.7,52.3l-20.5-1.2l13.2-15.7L1752.7,52.3z M1737.1,49l11.9,0.7l-4.2-9.8L1737.1,49z"/>
	</g>
	<g>
		<polygon class="st16" points="344.5,84.6 337.5,91.6 344.5,98.7 337.5,105.7 344.5,112.7 337.5,119.7 343.6,125.9 342,127.6 
			334.1,119.7 341.1,112.7 334.1,105.7 341.1,98.7 334.1,91.6 341.1,84.6 334.1,77.6 341.1,70.6 334.9,64.4 336.6,62.7 344.5,70.6 
			337.5,77.6 		"/>
	</g>
	<g>
		<g>
			<g>
				<polygon class="st44" points="598,345.4 595.2,342.6 563.6,342.6 560.8,345.4 				"/>
			</g>
			<g>
				<polygon class="st44" points="573.4,332.8 570.6,335.6 588.2,335.6 585.4,332.8 				"/>
			</g>
			<g>
				<polygon class="st44" points="593.1,340.5 590.3,337.7 568.5,337.7 565.7,340.5 				"/>
			</g>
			<g>
				<polygon class="st44" points="583.3,330.7 579.4,326.8 575.5,330.7 				"/>
			</g>
		</g>
		<g>
			<polygon class="st44" points="595.2,350.3 598,347.5 560.8,347.5 563.6,350.3 			"/>
		</g>
		<g>
			<polygon class="st44" points="598,345.4 595.2,342.6 563.6,342.6 560.8,345.4 			"/>
		</g>
		<g>
			<polygon class="st44" points="585.4,360.1 588.2,357.3 570.6,357.3 573.4,360.1 			"/>
		</g>
		<g>
			<polygon class="st44" points="575.5,362.1 579.4,366.1 583.3,362.1 			"/>
		</g>
		<g>
			<polygon class="st44" points="590.3,355.2 593.1,352.4 565.7,352.4 568.5,355.2 			"/>
		</g>
	</g>
	<g>
		<path class="st44" d="M1275.5,313.1c0,13.1-10.6,23.8-23.8,23.8c-13.1,0-23.8-10.6-23.8-23.8c0-13.1,10.6-23.8,23.8-23.8
			C1264.8,289.3,1275.5,300,1275.5,313.1z"/>
	</g>
	<g>
		<polygon class="st16" points="929.3,71.3 929.3,79.2 922.6,79.2 922.6,85.9 915.9,85.9 915.9,92.6 909.2,92.6 909.2,99.3 
			902.5,99.3 902.5,104.8 900.2,104.8 900.2,96.9 906.8,96.9 906.8,90.2 913.5,90.2 913.5,83.5 920.2,83.5 920.2,76.8 926.9,76.8 
			926.9,71.3 		"/>
	</g>
	<g>
		<path class="st16" d="M56.1,31.7l-20.5-1.2l13.2-15.7L56.1,31.7z M40.6,28.4l11.9,0.7l-4.2-9.8L40.6,28.4z"/>
	</g>
	<g>
		<path class="st44" d="M234.8,460.7c0,13.1-10.6,23.8-23.8,23.8c-13.1,0-23.8-10.6-23.8-23.8s10.6-23.8,23.8-23.8
			C224.2,436.9,234.8,447.5,234.8,460.7z"/>
	</g>
	<g>
		<polygon class="st16" points="661.9,472.4 659.5,472.4 659.5,463.7 667.1,463.7 667.1,456.1 674.6,456.1 674.6,448.6 682.1,448.6 
			682.1,441.1 689.7,441.1 689.7,434.7 692.1,434.7 692.1,443.4 684.5,443.4 684.5,451 677,451 677,458.5 669.4,458.5 669.4,466.1 
			661.9,466.1 		"/>
	</g>
	<g>
		
			<rect x="988.8" y="201.6" transform="matrix(0.7071 -0.7072 0.7072 0.7071 145.049 763.2087)" class="st44" width="9.8" height="9.8"/>
	</g>
	<g>
		<g>
			
				<rect x="1720.9" y="550.1" transform="matrix(0.7071 -0.7071 0.7071 0.7071 115.9957 1382.6814)" class="st16" width="12.3" height="2.4"/>
		</g>
		<g>
			
				<rect x="1725.9" y="545.1" transform="matrix(0.7072 -0.707 0.707 0.7072 115.913 1382.521)" class="st16" width="2.4" height="12.3"/>
		</g>
	</g>
</g>
</svg>
