<?xml version="1.0" encoding="utf-8"?>
<!-- Generator: Adobe Illustrator 22.1.0, SVG Export Plug-In . SVG Version: 6.00 Build 0)  -->
<svg version="1.1" id="Layer_1" xmlns="http://www.w3.org/2000/svg" xmlns:xlink="http://www.w3.org/1999/xlink" x="0px" y="0px"
	 viewBox="0 0 1828 1303.4" style="enable-background:new 0 0 1828 1303.4;" xml:space="preserve">
<style type="text/css">
	.st0{fill-rule:evenodd;clip-rule:evenodd;fill:url(#SVGID_1_);}
	.st1{fill:none;stroke:url(#SVGID_2_);stroke-miterlimit:10;stroke-dasharray:11.9422,11.9422;}
	.st2{fill:#D0CDCD;}
	.st3{fill:#F0F0F0;}
	.st4{fill:url(#screen_6_);}
	.st5{opacity:0.335;fill:#DDDDDD;stroke:#CCCACA;stroke-width:2;enable-background:new    ;}
	.st6{fill:#9E9E9E;}
	.st7{fill:#999999;}
	.st8{fill:#C1C1C1;}
	.st9{clip-path:url(#screen_9_);}
	.st10{fill:none;stroke:#2461BA;stroke-width:2;stroke-linecap:round;stroke-linejoin:round;stroke-miterlimit:10;}
	.st11{fill:none;stroke:#35A8E0;stroke-linecap:round;stroke-linejoin:round;stroke-miterlimit:10;}
	.st12{fill:none;stroke:#FFFFFF;stroke-linecap:round;stroke-linejoin:round;stroke-miterlimit:10;}
	
		.st13{fill:none;stroke:#F4A01E;stroke-width:2;stroke-linecap:round;stroke-linejoin:round;stroke-miterlimit:10;stroke-dasharray:8;}
	.st14{fill:none;stroke:#E5007E;stroke-linecap:round;stroke-linejoin:round;stroke-miterlimit:10;}
	.st15{fill:none;stroke:#FFEC00;stroke-linecap:round;stroke-linejoin:round;stroke-miterlimit:10;}
	.st16{fill:#FFFFFF;}
	.st17{fill:#EC1A3B;}
	.st18{opacity:0.7;clip-path:url(#screen_9_);}
	.st19{clip-path:url(#SVGID_4_);}
	.st20{clip-path:url(#SVGID_6_);}
	.st21{clip-path:url(#SVGID_8_);}
	.st22{clip-path:url(#SVGID_10_);}
	.st23{clip-path:url(#SVGID_12_);}
	.st24{clip-path:url(#SVGID_14_);}
	.st25{clip-path:url(#SVGID_16_);}
	.st26{clip-path:url(#SVGID_18_);}
	.st27{clip-path:url(#SVGID_20_);}
	.st28{clip-path:url(#SVGID_22_);}
	.st29{clip-path:url(#SVGID_24_);}
	.st30{clip-path:url(#SVGID_26_);}
	.st31{clip-path:url(#SVGID_28_);}
	.st32{clip-path:url(#SVGID_30_);}
	.st33{clip-path:url(#SVGID_32_);}
	.st34{clip-path:url(#SVGID_34_);}
	.st35{clip-path:url(#SVGID_36_);}
	.st36{fill-rule:evenodd;clip-rule:evenodd;fill:#FFFFFF;enable-background:new    ;}
	.st37{fill-rule:evenodd;clip-rule:evenodd;fill:none;stroke:#FFFFFF;stroke-miterlimit:10;enable-background:new    ;}
	.st38{fill:#611A85;}
	.st39{fill:none;stroke:#611A85;stroke-width:2;stroke-miterlimit:10;}
	.st40{fill:#2461BA;}
	.st41{opacity:0.9;fill:#0E2446;}
	.st42{fill-rule:evenodd;clip-rule:evenodd;fill:#2461BA;}
	.st43{fill:#FBAE17;}
	.st44{fill-rule:evenodd;clip-rule:evenodd;fill:#FFFFFF;}
	.st45{fill-rule:evenodd;clip-rule:evenodd;fill:#FBAE17;}
	.st46{fill-rule:evenodd;clip-rule:evenodd;fill:#EC1A3B;}
	.st47{fill:#00CE8C;}
	.st48{fill-rule:evenodd;clip-rule:evenodd;fill:#00CE8C;}
	.st49{clip-path:url(#SVGID_38_);fill-rule:evenodd;clip-rule:evenodd;fill:url(#SVGID_39_);}
	.st50{opacity:0.38;clip-path:url(#SVGID_38_);}
	.st51{fill-rule:evenodd;clip-rule:evenodd;fill:url(#SVGID_40_);}
	.st52{fill:#002B59;}
	.st53{opacity:0.6;fill:#FFFFFF;}
	.st54{fill:url(#screen_10_);enable-background:new    ;}
	.st55{clip-path:url(#screen_11_);}
	.st56{clip-path:url(#screen_12_);}
	.st57{clip-path:url(#screen_13_);}
	.st58{clip-path:url(#screen_14_);}
	.st59{opacity:0.5;}
	.st60{opacity:0.43;}
	.st61{fill-rule:evenodd;clip-rule:evenodd;fill:url(#SVGID_41_);}
	.st62{opacity:0.54;}
	.st63{fill:#2B3A60;}
	.st64{fill:#252E49;}
	.st65{opacity:0.46;fill-rule:evenodd;clip-rule:evenodd;fill:#F9F9F9;}
	.st66{fill:#ADADAD;}
	.st67{fill:url(#SVGID_42_);}
	.st68{fill:#FFB549;}
	.st69{fill-rule:evenodd;clip-rule:evenodd;fill:url(#SVGID_43_);}
	.st70{opacity:0.1;fill:#00C9EA;}
	.st71{fill:#FFFFFF;fill-opacity:0;}
	.st72{fill:url(#path68_2_);}
	.st73{fill:url(#path70_2_);}
	.st74{fill:url(#path72_2_);}
	.st75{fill:url(#path74_2_);}
	.st76{opacity:0.2;enable-background:new    ;}
	.st77{opacity:0.12;enable-background:new    ;}
	.st78{opacity:0.25;fill:#FFFFFF;enable-background:new    ;}
	.st79{fill:#FFFFFF;stroke:#FFFFFF;stroke-width:0.2725;stroke-miterlimit:10;}
	.st80{fill-rule:evenodd;clip-rule:evenodd;fill:#567DBF;}
	.st81{fill-rule:evenodd;clip-rule:evenodd;fill:#FDB515;}
	.st82{fill:#00005E;stroke:#02B3C6;stroke-width:2;stroke-linecap:round;stroke-linejoin:round;stroke-miterlimit:10;}
	.st83{fill:url(#SVGID_48_);stroke:#FFFFFF;stroke-linecap:round;stroke-linejoin:round;stroke-miterlimit:10;}
	.st84{opacity:0.32;fill:url(#SVGID_49_);}
	.st85{fill:#00005E;}
	.st86{opacity:0.52;fill:#00005E;stroke:#02B3C6;stroke-width:2;stroke-linecap:round;stroke-linejoin:round;stroke-miterlimit:10;}
	.st87{opacity:0.47;fill:#0214A3;}
	.st88{fill:url(#SVGID_50_);}
	.st89{fill:none;stroke:#FFFFFF;stroke-width:3;stroke-linecap:round;stroke-linejoin:round;stroke-miterlimit:10;}
	.st90{fill:#0000A5;stroke:#FFFFFF;stroke-width:2;stroke-linecap:round;stroke-linejoin:round;stroke-miterlimit:10;}
	.st91{fill:url(#SVGID_51_);}
	.st92{fill:#02B3C6;}
	.st93{fill:none;stroke:url(#SVGID_52_);stroke-width:3;stroke-linecap:round;stroke-linejoin:round;stroke-miterlimit:10;}
	.st94{fill:#0214A3;}
	.st95{fill:none;stroke:#02B3C6;stroke-width:4;stroke-linecap:round;stroke-linejoin:round;stroke-miterlimit:10;}
	.st96{fill:#A5A5A5;}
	.st97{fill:url(#SVGID_53_);}
	.st98{opacity:0.15;fill:#FFFFFF;}
	.st99{fill-rule:evenodd;clip-rule:evenodd;fill:none;stroke:#2B3A60;stroke-width:5;stroke-miterlimit:10;}
	.st100{fill-rule:evenodd;clip-rule:evenodd;fill:#2B3A60;}
	.st101{fill:#C600A1;}
	.st102{fill-rule:evenodd;clip-rule:evenodd;fill:none;stroke:#2B3A60;stroke-width:3;stroke-miterlimit:10;}
	.st103{fill:none;stroke:#2B3A60;stroke-width:5;stroke-linecap:round;stroke-linejoin:round;stroke-miterlimit:10;}
	.st104{fill:url(#SVGID_58_);}
	.st105{fill:#472F00;}
	.st106{fill-rule:evenodd;clip-rule:evenodd;fill:#FFB000;}
	.st107{opacity:0.22;}
	.st108{fill:#DD7800;}
	.st109{opacity:0.78;}
	.st110{fill-rule:evenodd;clip-rule:evenodd;fill:url(#SVGID_59_);}
	.st111{fill-rule:evenodd;clip-rule:evenodd;fill:url(#SVGID_60_);}
	.st112{fill-rule:evenodd;clip-rule:evenodd;fill:url(#SVGID_61_);}
	.st113{fill:url(#SVGID_62_);}
	.st114{opacity:0.17;}
	.st115{fill-rule:evenodd;clip-rule:evenodd;fill:url(#SVGID_63_);}
	.st116{fill-rule:evenodd;clip-rule:evenodd;fill:url(#SVGID_64_);}
	.st117{fill-rule:evenodd;clip-rule:evenodd;fill:url(#SVGID_65_);}
	.st118{fill-rule:evenodd;clip-rule:evenodd;fill:url(#SVGID_66_);}
	.st119{fill-rule:evenodd;clip-rule:evenodd;fill:url(#SVGID_67_);}
	.st120{fill-rule:evenodd;clip-rule:evenodd;fill:url(#SVGID_68_);}
	.st121{fill-rule:evenodd;clip-rule:evenodd;fill:url(#SVGID_69_);}
	.st122{fill-rule:evenodd;clip-rule:evenodd;fill:url(#SVGID_70_);}
	.st123{fill-rule:evenodd;clip-rule:evenodd;fill:url(#SVGID_71_);}
	.st124{fill-rule:evenodd;clip-rule:evenodd;fill:url(#SVGID_72_);}
	.st125{fill-rule:evenodd;clip-rule:evenodd;fill:url(#SVGID_73_);}
	.st126{fill-rule:evenodd;clip-rule:evenodd;fill:url(#SVGID_74_);}
	.st127{fill-rule:evenodd;clip-rule:evenodd;fill:url(#SVGID_75_);}
	.st128{fill:#50535B;}
	.st129{fill-rule:evenodd;clip-rule:evenodd;fill:url(#SVGID_76_);}
	.st130{fill-rule:evenodd;clip-rule:evenodd;fill:url(#SVGID_77_);}
	.st131{fill-rule:evenodd;clip-rule:evenodd;fill:url(#SVGID_78_);}
	.st132{fill:url(#SVGID_79_);}
	.st133{fill:url(#SVGID_80_);}
	.st134{fill:url(#SVGID_81_);}
	.st135{fill-rule:evenodd;clip-rule:evenodd;fill:url(#SVGID_82_);}
	.st136{clip-path:url(#SVGID_84_);}
	.st137{fill:url(#SVGID_85_);}
	.st138{fill:url(#SVGID_86_);}
	.st139{fill-rule:evenodd;clip-rule:evenodd;fill:url(#SVGID_87_);}
	.st140{fill-rule:evenodd;clip-rule:evenodd;fill:url(#SVGID_88_);}
	.st141{fill-rule:evenodd;clip-rule:evenodd;fill:none;stroke:url(#SVGID_89_);stroke-width:0.25;stroke-miterlimit:10;}
	.st142{fill-rule:evenodd;clip-rule:evenodd;fill:none;stroke:url(#SVGID_90_);stroke-width:0.25;stroke-miterlimit:10;}
	.st143{fill-rule:evenodd;clip-rule:evenodd;fill:none;stroke:url(#SVGID_91_);stroke-width:0.25;stroke-miterlimit:10;}
	.st144{fill:url(#SVGID_92_);}
	.st145{fill:url(#SVGID_93_);}
	.st146{fill:url(#SVGID_94_);}
	.st147{fill-rule:evenodd;clip-rule:evenodd;fill:url(#SVGID_95_);}
	.st148{fill-rule:evenodd;clip-rule:evenodd;fill:url(#SVGID_96_);}
	.st149{fill-rule:evenodd;clip-rule:evenodd;fill:url(#SVGID_97_);}
	.st150{fill-rule:evenodd;clip-rule:evenodd;fill:#794A17;}
	.st151{fill-rule:evenodd;clip-rule:evenodd;fill:url(#SVGID_98_);}
	.st152{fill-rule:evenodd;clip-rule:evenodd;fill:url(#SVGID_99_);}
	.st153{fill-rule:evenodd;clip-rule:evenodd;fill:url(#SVGID_100_);}
	.st154{fill-rule:evenodd;clip-rule:evenodd;fill:url(#SVGID_101_);}
	.st155{fill-rule:evenodd;clip-rule:evenodd;fill:url(#SVGID_102_);}
	.st156{fill-rule:evenodd;clip-rule:evenodd;fill:url(#SVGID_103_);}
	.st157{fill:#794A17;}
	.st158{clip-path:url(#SVGID_105_);fill-rule:evenodd;clip-rule:evenodd;fill:url(#SVGID_106_);}
	.st159{fill-rule:evenodd;clip-rule:evenodd;fill:url(#SVGID_107_);}
	.st160{fill:#7C7E86;}
	.st161{fill-rule:evenodd;clip-rule:evenodd;fill:#5252A7;}
	.st162{fill:#3F4147;}
	.st163{fill-rule:evenodd;clip-rule:evenodd;fill:#5252A7;stroke:#3F4147;stroke-width:0.2;stroke-miterlimit:10;}
	.st164{fill-rule:evenodd;clip-rule:evenodd;fill:url(#SVGID_108_);}
	.st165{fill-rule:evenodd;clip-rule:evenodd;fill:none;stroke:#FF72BF;stroke-miterlimit:10;}
	.st166{fill-rule:evenodd;clip-rule:evenodd;fill:url(#SVGID_111_);}
	.st167{fill-rule:evenodd;clip-rule:evenodd;fill:url(#SVGID_112_);}
	.st168{fill:url(#SVGID_113_);}
	.st169{fill-rule:evenodd;clip-rule:evenodd;fill:url(#SVGID_114_);}
	.st170{fill-rule:evenodd;clip-rule:evenodd;fill:url(#SVGID_115_);}
	.st171{fill-rule:evenodd;clip-rule:evenodd;fill:url(#SVGID_116_);}
	.st172{fill-rule:evenodd;clip-rule:evenodd;fill:url(#SVGID_117_);}
	.st173{fill-rule:evenodd;clip-rule:evenodd;fill:url(#SVGID_118_);}
	.st174{fill-rule:evenodd;clip-rule:evenodd;fill:url(#SVGID_119_);}
	.st175{fill-rule:evenodd;clip-rule:evenodd;fill:url(#SVGID_120_);}
	.st176{fill:url(#SVGID_121_);}
	.st177{fill-rule:evenodd;clip-rule:evenodd;fill:url(#SVGID_122_);}
	.st178{fill-rule:evenodd;clip-rule:evenodd;fill:url(#SVGID_123_);}
	.st179{fill-rule:evenodd;clip-rule:evenodd;fill:url(#SVGID_124_);}
	.st180{fill-rule:evenodd;clip-rule:evenodd;fill:url(#SVGID_125_);}
	.st181{fill-rule:evenodd;clip-rule:evenodd;fill:url(#SVGID_126_);}
</style>
<g class="st59">
	<g>
		<path class="st44" d="M1618.3,739.3c0,4.5-3.6,8.1-8.1,8.1c-4.4,0-8.1-3.6-8.1-8.1s3.6-8.1,8.1-8.1
			C1614.7,731.2,1618.3,734.8,1618.3,739.3z"/>
	</g>
	<g>
		<rect x="32.5" y="1017" class="st44" width="22" height="22"/>
	</g>
	<g>
		<g>
			<polygon class="st44" points="953.2,233.3 949.2,241.3 964.9,225.6 963.5,222.9 			"/>
		</g>
		<g>
			<polygon class="st44" points="967.2,230.2 965.8,227.6 946.3,247.1 942.3,255.2 			"/>
		</g>
		<g>
			<polygon class="st44" points="971.8,239.5 970.5,236.8 950.5,256.8 954.5,256.8 			"/>
		</g>
		<g>
			<polygon class="st44" points="969.5,234.9 968.2,232.2 943.6,256.8 947.6,256.8 			"/>
		</g>
		<g>
			<polygon class="st44" points="974.1,244.1 972.8,241.4 957.5,256.8 961.5,256.8 			"/>
		</g>
		<g>
			<polygon class="st44" points="962.6,221 961,217.8 956.1,227.4 			"/>
		</g>
		<g>
			<polygon class="st44" points="971.4,256.8 980.5,256.8 977.4,250.7 			"/>
		</g>
		<g>
			<polygon class="st44" points="976.4,248.7 975.1,246.1 964.4,256.8 968.4,256.8 			"/>
		</g>
	</g>
	<g>
		<g>
			<polygon class="st44" points="664.4,503.6 660.1,505.1 671.4,505.1 671.9,503.6 			"/>
		</g>
		<g>
			<polygon class="st44" points="670.6,507.6 671,506.2 656.9,506.2 652.6,507.6 			"/>
		</g>
		<g>
			<polygon class="st44" points="668.9,512.6 669.4,511.2 655,511.2 656.4,512.6 			"/>
		</g>
		<g>
			<polygon class="st44" points="669.7,510.1 670.2,508.7 652.5,508.7 653.9,510.1 			"/>
		</g>
		<g>
			<polygon class="st44" points="668.1,515.1 668.5,513.7 657.5,513.7 658.9,515.1 			"/>
		</g>
		<g>
			<polygon class="st44" points="672.1,501.1 667.6,502.6 672.1,502.6 			"/>
		</g>
		<g>
			<polygon class="st44" points="662.5,518.7 665.8,522 666.9,518.7 			"/>
		</g>
		<g>
			<polygon class="st44" points="667.2,517.6 667.7,516.2 660,516.2 661.4,517.6 			"/>
		</g>
	</g>
	<g>
		<polygon class="st16" points="1732.5,946.9 1724.2,946.9 1724.2,939.9 1717.2,939.9 1717.2,932.9 1710.2,932.9 1710.2,925.9 
			1703.3,925.9 1703.3,918.9 1697.5,918.9 1697.5,916.4 1705.7,916.4 1705.7,923.4 1712.7,923.4 1712.7,930.4 1719.7,930.4 
			1719.7,937.4 1726.7,937.4 1726.7,944.4 1732.5,944.4 		"/>
	</g>
	<g>
		<polygon class="st44" points="874.3,724.5 866.6,733.7 861,722.4 		"/>
	</g>
	<g class="st62">
		<polygon class="st44" points="392.2,749.1 310.1,800.2 300.1,692.5 		"/>
	</g>
	<g>
		<path class="st16" d="M40.7,749.9l1.2-21.4l16.4,13.8L40.7,749.9z M44.2,733.7l-0.7,12.4l10.2-4.4L44.2,733.7z"/>
	</g>
	<g>
		<path class="st44" d="M1588.8,309.4c0,7.7-6.2,13.9-13.9,13.9c-7.7,0-13.9-6.2-13.9-13.9c0-7.7,6.2-13.9,13.9-13.9
			C1582.5,295.4,1588.8,301.7,1588.8,309.4z"/>
	</g>
	<g>
		<path class="st16" d="M1455.3,505.3l-19.2-19.2l28.9-9.6L1455.3,505.3z M1440.6,487.2l13.6,13.6l6.8-20.3L1440.6,487.2z"/>
	</g>
	<g>
		<path class="st16" d="M1087.2,987.4l-19.2-19.2l28.9-9.6L1087.2,987.4z M1072.5,969.2l13.6,13.6l6.8-20.3L1072.5,969.2z"/>
	</g>
	<g>
		<g>
			
				<rect x="465" y="604.6" transform="matrix(0.7071 -0.7071 0.7071 0.7071 -290.3083 510.8012)" class="st16" width="12.9" height="2.5"/>
		</g>
		<g>
			
				<rect x="470.2" y="599.4" transform="matrix(0.7072 -0.707 0.707 0.7072 -290.2995 510.7309)" class="st16" width="2.5" height="12.9"/>
		</g>
	</g>
	<g>
		<g>
			
				<rect x="1316.4" y="993.8" transform="matrix(0.7071 -0.7071 0.7071 0.7071 -316.1447 1226.853)" class="st16" width="12.9" height="2.5"/>
		</g>
		<g>
			
				<rect x="1321.6" y="988.6" transform="matrix(0.7071 -0.7071 0.7071 0.7071 -316.1563 1226.7714)" class="st16" width="2.5" height="12.9"/>
		</g>
	</g>
	<g>
		<path class="st16" d="M534.4,1038.3l-9.3-19.3l21,4.2L534.4,1038.3z M529.5,1022.4l5.4,11.2l6.8-8.8L529.5,1022.4z"/>
	</g>
	<g>
		<path class="st16" d="M1743.1,566l-21.4-1.2l13.8-16.4L1743.1,566z M1726.9,562.6l12.4,0.7l-4.4-10.2L1726.9,562.6z"/>
	</g>
	<g>
		<polygon class="st16" points="350.6,546.2 343.3,553.5 350.6,560.9 343.3,568.2 350.6,575.5 343.3,582.9 349.8,589.3 348,591.1 
			339.8,582.9 347.1,575.5 339.8,568.2 347.1,560.9 339.8,553.5 347.1,546.2 339.8,538.9 347.1,531.6 340.7,525.1 342.4,523.3 
			350.6,531.6 343.3,538.9 		"/>
	</g>
	<g>
		<g>
			<g>
				<polygon class="st44" points="615.4,818.5 612.4,815.6 579.5,815.6 576.5,818.5 				"/>
			</g>
			<g>
				<polygon class="st44" points="589.7,805.3 586.7,808.3 605.1,808.3 602.2,805.3 				"/>
			</g>
			<g>
				<polygon class="st44" points="610.3,813.4 607.3,810.5 584.6,810.5 581.6,813.4 				"/>
			</g>
			<g>
				<polygon class="st44" points="600,803.2 595.9,799.1 591.9,803.2 				"/>
			</g>
		</g>
		<g>
			<polygon class="st44" points="612.4,823.6 615.4,820.7 576.5,820.7 579.5,823.6 			"/>
		</g>
		<g>
			<polygon class="st44" points="615.4,818.5 612.4,815.6 579.5,815.6 576.5,818.5 			"/>
		</g>
		<g>
			<polygon class="st44" points="602.2,833.9 605.1,830.9 586.7,830.9 589.7,833.9 			"/>
		</g>
		<g>
			<polygon class="st44" points="591.9,836 595.9,840.1 600,836 			"/>
		</g>
		<g>
			<polygon class="st44" points="607.3,828.8 610.3,825.8 581.6,825.8 584.6,828.8 			"/>
		</g>
	</g>
	<g>
		<path class="st44" d="M1115.3,347.4c0,6.9-5.6,12.4-12.4,12.4c-6.9,0-12.4-5.6-12.4-12.4c0-6.9,5.6-12.4,12.4-12.4
			C1109.7,335,1115.3,340.6,1115.3,347.4z"/>
	</g>
	<g>
		<polygon class="st16" points="620.4,692.5 620.4,700.8 613.4,700.8 613.4,707.7 606.4,707.7 606.4,714.7 599.4,714.7 599.4,721.7 
			592.4,721.7 592.4,727.5 589.9,727.5 589.9,719.2 596.9,719.2 596.9,712.3 603.9,712.3 603.9,705.3 610.9,705.3 610.9,698.3 
			617.9,698.3 617.9,692.5 		"/>
	</g>
	<g>
		<path class="st16" d="M49.5,490.9l-21.4-1.2L42,473.3L49.5,490.9z M33.3,487.5l12.4,0.7L41.3,478L33.3,487.5z"/>
	</g>
	<g>
		<path class="st44" d="M236.1,938.9c0,13.7-11.1,24.8-24.8,24.8c-13.7,0-24.8-11.1-24.8-24.8c0-13.7,11.1-24.8,24.8-24.8
			C225,914.1,236.1,925.2,236.1,938.9z"/>
	</g>
	<g>
		<polygon class="st16" points="759.2,1085.6 756.7,1085.6 756.7,1076.5 764.6,1076.5 764.6,1068.6 772.4,1068.6 772.4,1060.8 
			780.3,1060.8 780.3,1052.9 788.2,1052.9 788.2,1046.3 790.7,1046.3 790.7,1055.4 782.8,1055.4 782.8,1063.2 774.9,1063.2 
			774.9,1071.1 767.1,1071.1 767.1,1079 759.2,1079 		"/>
	</g>
	<g>
		<polygon class="st16" points="1543,650.6 1540.5,650.6 1540.5,641.5 1548.4,641.5 1548.4,633.6 1556.3,633.6 1556.3,625.8 
			1564.1,625.8 1564.1,617.9 1572,617.9 1572,611.3 1574.5,611.3 1574.5,620.4 1566.6,620.4 1566.6,628.3 1558.7,628.3 
			1558.7,636.1 1550.9,636.1 1550.9,644 1543,644 		"/>
	</g>
	<g>
		
			<rect x="1663.4" y="337.1" transform="matrix(0.7071 -0.7072 0.7072 0.7071 246.7321 1280.1467)" class="st44" width="10.3" height="10.3"/>
	</g>
	<g>
		<g>
			
				<rect x="1788" y="1032.3" transform="matrix(0.7071 -0.7071 0.7071 0.7071 -205.2752 1571.5687)" class="st16" width="12.9" height="2.5"/>
		</g>
		<g>
			
				<rect x="1793.2" y="1027.1" transform="matrix(0.7072 -0.707 0.707 0.7072 -205.3288 1571.3695)" class="st16" width="2.5" height="12.9"/>
		</g>
	</g>
	<g>
		<g>
			
				<rect x="352.3" y="312.2" transform="matrix(0.7071 -0.7071 0.7071 0.7071 -116.5681 345.5153)" class="st16" width="12.9" height="2.5"/>
		</g>
		<g>
			
				<rect x="357.5" y="307" transform="matrix(0.7072 -0.707 0.707 0.7072 -116.5713 345.468)" class="st16" width="2.5" height="12.9"/>
		</g>
	</g>
</g>
</svg>
