<?xml version="1.0" encoding="utf-8"?>
<!-- Generator: Adobe Illustrator 17.0.0, SVG Export Plug-In . SVG Version: 6.00 Build 0)  -->
<!DOCTYPE svg PUBLIC "-//W3C//DTD SVG 1.1//EN" "http://www.w3.org/Graphics/SVG/1.1/DTD/svg11.dtd">
<svg version="1.1" id="Layer_1" xmlns="http://www.w3.org/2000/svg" xmlns:xlink="http://www.w3.org/1999/xlink" x="0px" y="0px"
	 width="500px" height="148.293px" viewBox="0 0 500 148.293" enable-background="new 0 0 500 148.293" xml:space="preserve">
<g>
	<path id="rect48_2_" fill="none" stroke="#000000" stroke-width="5" stroke-miterlimit="10" d="M20.958,2.647h458.234
		c10.163,0,18.383,8.01,18.383,17.911v107.178c0,9.902-8.22,17.911-18.383,17.911H20.958c-10.162-0.146-18.383-8.154-18.383-17.911
		V20.558C2.575,10.655,10.795,2.647,20.958,2.647z"/>
	<g>
		<g>
			<path fill="#567DBF" d="M97.252,93.023L80.338,70.371c-1.812-2.416-4.53-3.775-7.551-3.775c-5.134,0-9.363,4.228-9.363,9.363
				c0,5.134,4.228,9.363,9.363,9.363H91.21c0.453,0,0.755,0.302,0.755,0.755c0,0.151,0,0.302-0.151,0.453l-16.913,17.215
				c-0.151,0.151-0.302,0.151-0.453,0.151c-0.604,0-1.208,0-1.812,0c-15.554,0-28.088-12.534-28.088-28.088
				S57.082,47.72,72.636,47.72c8.759,0,16.913,4.077,22.199,11.024l16.913,22.652c1.812,2.416,4.53,3.775,7.551,3.775
				c5.134,0,9.363-4.228,9.363-9.363c0-4.983-3.775-9.061-8.759-9.363c-0.302,0-0.604-0.302-0.604-0.755V48.324
				c0-0.453,0.302-0.755,0.755-0.755c15.252,0.302,27.333,12.836,27.333,28.088c0,15.554-12.534,28.088-28.088,28.088
				C110.692,104.047,102.537,99.97,97.252,93.023z"/>
		</g>
		<path fill="#FDB515" d="M119.299,57.686c0.151-0.151,0.151-0.302,0.151-0.453s-0.151-0.302-0.151-0.453l-12.081-12.383
			c-0.151-0.151-0.302-0.151-0.453-0.151c-0.453,0-0.755,0.302-0.755,0.755c0,8.306,0,16.611,0,24.917
			c0,0.453,0.302,0.755,0.755,0.755c0.151,0,0.453-0.151,0.453-0.151L119.299,57.686z"/>
	</g>
	<g>
		<path fill="#567DBF" d="M171.247,101.329l-0.755-20.84c0-0.151,0-0.302,0-0.755c0-0.302,0.151-0.755,0.151-1.208
			c0.151-0.453,0.302-0.906,0.604-1.51s0.604-0.906,1.208-1.359c0.151-0.151,0.453-0.302,0.755-0.453s0.755-0.302,1.057-0.302
			c0.453,0,0.755-0.151,1.208-0.151s0.755,0,1.057,0.151c0.302-0.755,0.604-1.359,0.906-2.114s0.755-1.51,1.208-2.114
			c0.453-0.604,0.906-1.359,1.359-1.963c0.453-0.604,1.057-1.057,1.661-1.51s1.208-0.755,1.963-1.057
			c0.604-0.302,1.359-0.302,2.114-0.302h0.151c1.359,0,2.416,0.302,3.473,0.755s1.661,1.208,2.265,1.963s1.057,1.812,1.51,3.02
			c0.302,1.057,0.604,2.265,0.906,3.624c0.151,0.755,0.302,1.359,0.453,1.963s0.302,1.057,0.453,1.51s0.302,0.755,0.604,0.906
			c0.151,0.151,0.453,0.302,0.755,0.302h0.604v5.587h-0.755c-0.755,0-1.51-0.302-2.114-0.604c-0.604-0.453-1.208-1.057-1.661-1.661
			c-0.151,0.151-0.302,0.302-0.604,0.453c-0.151,0.151-0.453,0.302-0.604,0.453s-0.453,0.302-0.755,0.453s-0.453,0.151-0.755,0.302
			c-0.151,0-0.302,0-0.453,0c-0.302,0-0.755,0-1.208-0.151c-0.604-0.151-1.208-0.302-1.963-0.453s-1.661-0.453-2.567-0.755
			s-1.812-0.604-2.718-0.906s-1.812-0.604-2.567-0.906c-0.906-0.302-1.51-0.604-2.265-0.755l1.057,19.783L171.247,101.329z
			 M182.271,74.298c-0.151,0.302-0.302,0.755-0.453,1.057s-0.302,0.755-0.453,1.057c0.453,0.151,1.057,0.453,1.812,0.755
			c0.755,0.302,1.51,0.604,2.416,0.906s1.812,0.604,2.567,0.755c0.906,0.302,1.661,0.453,2.416,0.453
			c-0.151-0.604-0.302-1.208-0.453-1.963c-0.151-0.604-0.302-1.208-0.453-1.963c-0.151-0.604-0.302-1.208-0.604-1.661
			c-0.302-0.604-0.453-1.057-0.755-1.359c-0.302-0.453-0.604-0.755-1.057-0.906c-0.302-0.151-0.755-0.302-1.057-0.302
			c-0.151,0-0.151,0-0.302,0s-0.453,0.151-0.755,0.151c-0.302,0.151-0.604,0.302-0.906,0.453s-0.604,0.604-1.057,0.906
			C182.724,73.391,182.422,73.844,182.271,74.298z"/>
		<path fill="#567DBF" d="M215.343,79.734v5.587h-0.453c-1.359,0-2.567-0.151-3.624-0.604s-1.812-1.057-2.416-1.812
			c-0.453,0.604-1.208,1.057-2.114,1.359s-1.963,0.604-3.171,0.755c-1.208,0.151-2.265,0.302-3.473,0.302s-2.265,0-3.322,0h-0.755
			v-5.587h0.755c1.661,0,3.171-0.151,4.228-0.302c1.057-0.151,2.114-0.453,2.869-0.906s1.208-0.906,1.51-1.359
			c0.302-0.604,0.453-1.208,0.453-1.963c0-0.453-0.151-1.208-0.302-1.963s-0.453-1.812-0.906-3.171l5.285-1.51
			c0.151,0.604,0.302,1.208,0.453,1.661s0.151,0.906,0.302,1.51c0,0.453,0.151,1.057,0.151,1.51c0,0.604,0.151,1.208,0.151,1.963
			c0,0.453,0.151,0.906,0.302,1.51c0.151,0.453,0.453,1.057,0.755,1.51s0.755,0.755,1.208,1.057c0.453,0.302,0.906,0.453,1.51,0.453
			L215.343,79.734L215.343,79.734z M204.017,91.815l-3.624,3.624l-3.775-3.775l3.624-3.775L204.017,91.815z M212.323,91.815
			l-3.624,3.775l-3.775-3.775l3.624-3.624L212.323,91.815z"/>
		<path fill="#567DBF" d="M214.588,79.734h0.453c0.906,0,1.812,0,2.869,0c0.906,0,1.661,0,2.416-0.151
			c-0.302-0.151-0.604-0.453-0.906-0.755s-0.604-0.755-0.906-1.208s-0.604-1.057-0.755-1.661c-0.151-0.604-0.302-1.359-0.302-1.963
			c0-0.151,0-0.302,0-0.604c0-0.604,0.151-1.208,0.302-1.963s0.453-1.51,0.755-2.265c0.453-0.755,0.906-1.51,1.359-2.114
			c0.604-0.604,1.208-1.208,1.812-1.812s1.359-0.906,2.114-1.208c0.755-0.302,1.359-0.302,2.114-0.302c0.151,0,0.151,0,0.302,0
			c1.208,0,2.265,0.302,3.322,0.906s1.812,1.208,2.567,2.114s1.359,1.963,1.812,3.02s0.604,2.265,0.604,3.473
			c0,1.057-0.151,2.265-0.604,3.322s-0.906,1.963-1.661,3.02c0.755,0.151,1.51,0.151,2.265,0.302c0.755,0,1.661,0.151,2.265,0.151
			h0.604v5.587h-0.453c-1.057,0-2.265,0-3.171,0c-1.057,0-1.963-0.151-2.869-0.302s-1.812-0.302-2.567-0.604
			s-1.51-0.604-2.114-1.057c-0.453,0.302-1.057,0.604-1.812,0.755c-0.755,0.151-1.661,0.453-2.718,0.604s-2.114,0.302-3.171,0.302
			s-2.114,0.151-3.171,0.151h-0.453v-5.738L214.588,79.734L214.588,79.734z M225.31,56.78l-3.624,3.624l-3.775-3.775l3.624-3.775
			L225.31,56.78z M225.914,69.163c-0.453,0-0.755,0.151-1.359,0.453c-0.604,0.302-0.906,0.604-1.359,0.906
			c-0.453,0.453-0.755,0.906-1.057,1.51s-0.453,1.208-0.453,2.114c0,0.302,0.151,0.604,0.302,1.057s0.604,0.755,0.906,1.208
			c0.302,0.453,0.906,0.755,1.359,1.208c0.453,0.302,1.057,0.604,1.661,0.755c0.453-0.151,0.906-0.453,1.208-0.906
			s0.755-0.755,1.057-1.208s0.604-0.906,0.755-1.208c0.151-0.453,0.302-0.906,0.302-1.208c0-0.604-0.151-1.057-0.302-1.661
			c-0.302-0.453-0.604-0.906-0.906-1.359c-0.302-0.453-0.755-0.755-1.208-1.057C226.518,69.465,226.216,69.314,225.914,69.163z
			 M233.464,56.78l-3.624,3.775l-3.775-3.775l3.624-3.624L233.464,56.78z"/>
		<path fill="#567DBF" d="M255.663,79.734v5.587h-0.453c-1.359,0-2.567-0.151-3.624-0.604c-1.057-0.453-1.812-1.057-2.416-1.812
			c-0.453,0.604-1.208,1.057-2.114,1.359s-1.963,0.604-3.171,0.755c-1.208,0.151-2.265,0.302-3.473,0.302c-1.208,0-2.265,0-3.322,0
			h-0.755v-5.587h0.755c1.661,0,3.171-0.151,4.228-0.302c1.057-0.151,2.114-0.453,2.869-0.906s1.208-0.906,1.51-1.359
			c0.302-0.604,0.453-1.208,0.453-1.963c0-0.453-0.151-1.208-0.302-1.963s-0.453-1.812-0.906-3.171l5.285-1.51
			c0.151,0.604,0.302,1.208,0.453,1.661s0.151,0.906,0.302,1.51c0,0.453,0.151,1.057,0.151,1.51c0,0.604,0.151,1.208,0.151,1.963
			c0,0.453,0.151,0.906,0.302,1.51c0.151,0.453,0.453,1.057,0.755,1.51s0.755,0.755,1.208,1.057c0.453,0.302,0.906,0.453,1.51,0.453
			L255.663,79.734L255.663,79.734z M245.998,60.555l-3.624,3.624l-3.775-3.775l3.624-3.775L245.998,60.555z M254.304,60.555
			l-3.624,3.775l-3.775-3.775l3.624-3.624L254.304,60.555z"/>
		<path fill="#567DBF" d="M255.663,79.734c0.755,0,1.51-0.151,2.114-0.453s1.359-0.906,1.963-1.661
			c0.604-0.755,1.208-1.812,1.661-3.171c0.604-1.359,1.057-3.02,1.51-5.134l5.285,1.51c-0.302,1.208-0.604,2.416-0.906,3.473
			s-0.453,2.114-0.453,2.869v0.151c0,0.302,0,0.604,0.151,0.755c0,0.302,0.151,0.604,0.302,0.755
			c0.151,0.302,0.302,0.453,0.453,0.604s0.453,0.151,0.604,0.151c0,0,0,0,0.151,0c0.604,0,1.057-0.151,1.51-0.604
			s0.906-0.906,1.359-1.51c0.453-0.604,0.755-1.208,1.057-1.963s0.604-1.51,0.906-2.265s0.453-1.51,0.755-2.265
			c0.151-0.755,0.302-1.359,0.453-1.963l5.134,1.057c-0.151,0.906-0.302,1.661-0.453,2.416s-0.151,1.51-0.151,2.265
			c0,0.151,0,0.453,0,0.604c0,0.302,0,0.755,0.151,1.208c0,0.453,0.151,0.906,0.302,1.359c0.151,0.453,0.453,0.906,0.755,1.208
			c0.302,0.302,0.755,0.453,1.359,0.453s1.057-0.302,1.51-0.755s0.604-1.057,0.906-1.812c0.151-0.755,0.302-1.661,0.453-2.567
			c0-0.906,0.151-1.812,0.151-2.718c0-0.302,0-0.453,0-0.604s0-0.302,0-0.453s0-0.302,0-0.453s0-0.453,0-0.755l5.436-0.453
			c0,0.453,0.151,0.906,0.151,1.359s0.151,0.906,0.151,1.359c0,0.453,0.151,1.057,0.151,1.51c0,0.604,0.151,1.208,0.302,1.812
			c0.151,0.755,0.302,1.359,0.604,1.963s0.755,1.057,1.208,1.359c0.453,0.453,0.906,0.604,1.359,0.906
			c0.453,0.151,0.906,0.302,1.359,0.302h0.755v5.587h-0.755c-0.755,0-1.359,0-2.114-0.151s-1.359-0.302-1.963-0.604
			s-1.208-0.755-1.812-1.208s-1.057-1.057-1.359-1.661c-0.755,1.057-1.661,1.963-2.718,2.718c-1.057,0.755-2.416,1.057-3.775,1.057
			s-2.567-0.302-3.775-0.906s-1.963-1.51-2.567-2.567c-0.453,0.604-0.906,1.057-1.359,1.51s-1.057,0.755-1.51,1.208
			s-1.208,0.604-1.812,0.755s-1.208,0.302-1.963,0.302c-0.604,0-1.208-0.151-1.963-0.302c-0.604-0.151-1.208-0.453-1.661-0.755
			s-1.057-0.755-1.359-1.208c-0.453-0.453-0.755-0.906-1.057-1.51c-0.755,1.208-1.661,2.265-2.718,2.718s-2.416,0.906-4.077,0.906
			h-0.906v-5.587h0.755L255.663,79.734L255.663,79.734z"/>
		<path fill="#567DBF" d="M295.53,79.734c1.057,0,1.963-0.151,2.718-0.604s1.51-0.906,2.114-1.51s1.057-1.359,1.661-2.114
			c0.453-0.755,0.906-1.661,1.359-2.416c0.453-0.906,0.906-1.661,1.359-2.567c0.453-0.755,1.057-1.51,1.661-2.265
			c0.604-0.604,1.359-1.208,2.114-1.661s1.661-0.604,2.718-0.604c0.906,0,1.812,0.151,2.567,0.453
			c0.755,0.302,1.51,0.604,2.114,1.208c0.604,0.453,1.208,1.057,1.661,1.812c0.453,0.604,0.906,1.359,1.208,2.114
			s0.604,1.51,0.755,2.416s0.302,1.661,0.302,2.416s0,1.51-0.151,2.114c-0.151,0.755-0.302,1.359-0.604,1.963
			c-0.302,0.755-0.604,1.359-1.057,1.963s-0.906,1.057-1.51,1.51s-1.208,0.755-1.812,0.906s-1.359,0.302-2.114,0.302
			c-0.604,0-1.208-0.151-1.963-0.302s-1.359-0.302-2.114-0.604c-0.302-0.151-0.604-0.302-1.057-0.453
			c-0.302-0.151-0.755-0.453-1.208-0.604s-0.755-0.453-1.208-0.755s-0.755-0.453-1.057-0.755c-1.208,1.057-2.416,1.963-3.624,2.567
			c-1.208,0.604-2.869,0.906-4.53,0.906h-0.453v-5.587h0.151L295.53,79.734L295.53,79.734z M307.007,77.318
			c0.453,0.302,0.906,0.604,1.51,0.906s1.208,0.604,1.812,0.906s1.208,0.453,1.963,0.604c0.302,0.151,0.604,0.151,0.906,0.151
			s0.453,0,0.604-0.151c0.151,0,0.302-0.151,0.453-0.302s0.302-0.302,0.453-0.604s0.302-0.604,0.302-0.906s0.151-0.604,0.151-0.906
			v-0.151c0-0.604-0.151-1.359-0.302-1.963s-0.604-1.208-0.906-1.812c-0.453-0.453-0.906-0.906-1.359-1.208
			c-0.302-0.151-0.755-0.302-1.208-0.302c-0.151,0-0.453,0-0.604,0s-0.453,0.151-0.604,0.302s-0.453,0.453-0.755,0.906
			s-0.604,1.057-0.906,1.661C307.913,75.204,307.46,76.11,307.007,77.318z"/>
		<path fill="#567DBF" d="M339.625,76.865c0.604,0.302,1.208,0.755,1.963,1.057s1.51,0.755,2.416,0.906
			c0.906,0.302,1.661,0.604,2.416,0.755c0.755,0.151,1.51,0.302,2.114,0.302c0.302,0,0.604,0,0.906,0s0.755,0,1.208-0.151
			c0.453,0,0.755-0.151,1.208-0.302s0.755-0.302,1.057-0.453s0.604-0.453,0.755-0.755s0.302-0.604,0.302-1.057l0,0
			c0-0.604-0.151-1.208-0.453-1.963s-0.755-1.51-1.359-2.265s-1.208-1.661-1.963-2.416s-1.51-1.661-2.265-2.265
			c-0.755-0.755-1.661-1.51-2.416-2.114s-1.51-1.208-2.265-1.661l3.171-4.832c1.359,0.906,2.718,1.963,3.926,3.02
			c1.359,1.208,2.567,2.416,3.624,3.624c1.057,1.359,2.114,2.718,2.869,4.077c0.755,1.359,1.359,2.869,1.661,4.228
			c0.151,0.755,0.302,1.661,0.302,2.416s-0.151,1.661-0.453,2.567c-0.302,1.057-0.906,1.963-1.812,3.02
			c-0.906,0.906-2.114,1.661-3.624,2.265c-1.208,0.453-2.567,0.604-4.077,0.604c-0.302,0-0.453,0-0.755,0
			c-0.906,0-1.963-0.151-2.869-0.302c-1.057-0.151-1.963-0.453-2.869-0.755c-0.906-0.302-1.812-0.755-2.718-1.057
			c-0.906-0.453-1.661-0.906-2.416-1.359L339.625,76.865z"/>
		<path fill="#567DBF" d="M361.824,95.137c2.114-0.453,4.077-1.057,5.738-1.661c1.661-0.755,3.171-1.51,4.53-2.416
			c1.208-0.906,2.265-1.812,3.02-2.718c0.755-1.057,1.359-1.963,1.51-3.02c-1.208,0-2.265,0-3.473-0.151
			c-1.057,0-2.114-0.151-3.171-0.453c-1.057-0.151-1.963-0.453-2.718-0.906c-0.906-0.453-1.51-0.906-2.114-1.51
			s-1.057-1.359-1.359-2.265c-0.302-0.906-0.453-1.963-0.453-3.171c0-0.755,0.151-1.661,0.302-2.567s0.453-1.661,0.755-2.567
			s0.755-1.661,1.208-2.416s1.057-1.359,1.661-1.963s1.359-1.057,2.114-1.359c0.755-0.302,1.51-0.453,2.416-0.453
			c2.265,0,4.228,1.057,6.191,3.02c0.604,0.755,1.208,1.51,1.661,2.265c0.453,0.906,0.906,1.812,1.208,2.718s0.604,1.963,0.906,3.02
			c0.151,1.057,0.302,2.114,0.453,3.171h1.51v5.587h-1.963c-0.453,2.114-1.359,4.077-2.567,5.738s-2.567,3.171-4.228,4.53
			c-1.661,1.208-3.473,2.265-5.436,3.171c-1.963,0.906-4.077,1.359-6.342,1.812L361.824,95.137z M371.64,71.277
			c-0.453,0-0.755,0.151-1.208,0.453s-0.906,0.755-1.208,1.208c-0.302,0.453-0.604,1.057-0.906,1.661
			c-0.302,0.604-0.302,1.208-0.302,1.812s0.151,1.057,0.453,1.51c0.302,0.453,0.604,0.755,1.057,0.906s0.906,0.453,1.51,0.604
			s1.057,0.151,1.661,0.302c0.302,0,0.604,0,1.057,0c0.302,0,0.755,0,1.057,0c0.453,0,0.755,0,1.208,0s0.755,0,1.057,0
			c0-0.604-0.151-1.057-0.302-1.812c-0.151-0.604-0.453-1.208-0.604-1.963s-0.604-1.208-0.906-1.812s-0.755-1.057-1.057-1.51
			c-0.453-0.453-0.755-0.755-1.208-1.057C372.546,71.277,372.093,71.277,371.64,71.277z"/>
		<path fill="#567DBF" d="M382.664,79.734h1.661c0.453,0,1.057,0,1.51-0.151s0.906-0.302,1.208-0.604s0.604-0.604,0.906-1.208
			c0.151-0.453,0.302-1.208,0.453-2.114c0-0.302,0-0.906,0-1.812s0-1.812,0-3.02c0-1.208,0-2.416,0-3.775s0-2.718,0-4.228
			c0-1.057,0-2.265,0-3.322s0-2.114,0-3.171s0-1.963-0.151-2.869c0-0.906-0.151-1.661-0.151-2.416l5.587-0.755
			c0.151,0.755,0.151,1.661,0.302,2.718s0.151,1.963,0.151,3.171c0,1.057,0,2.265,0,3.473c0,1.208,0,2.416,0,3.624
			c0,2.718,0,5.134,0,7.098s-0.151,3.775-0.151,5.436c0,1.057,0.302,1.963,0.906,2.567s1.359,0.906,2.567,0.906h0.453v5.587h-0.755
			c-0.151,0-0.151,0-0.302,0c-0.604,0-1.057,0-1.661-0.151s-1.057-0.302-1.51-0.453s-0.906-0.453-1.359-0.604
			s-0.755-0.453-1.057-0.755c-0.453,0.453-0.906,0.755-1.359,1.057s-1.057,0.453-1.51,0.604s-1.057,0.302-1.51,0.302
			s-0.906,0.151-1.359,0.151h-2.718v-5.285h-0.151L382.664,79.734L382.664,79.734z"/>
		<path fill="#567DBF" d="M396.708,79.734h3.473c0.755,0,1.359,0,2.114-0.151s1.359-0.302,1.963-0.453s1.057-0.604,1.359-1.057
			s0.604-1.057,0.604-1.963c0-0.453-0.151-0.906-0.302-1.661c-0.151-0.755-0.302-1.51-0.604-2.265s-0.604-1.661-0.906-2.567
			s-0.755-1.661-1.057-2.416l4.983-2.416c0.302,0.755,0.755,1.661,1.057,2.567s0.755,1.812,0.906,2.869s0.453,1.963,0.755,3.02
			s0.302,1.963,0.302,2.869c0,1.661-0.302,3.02-0.755,4.228c-0.453,1.208-1.359,2.114-2.265,2.869
			c-0.906,0.755-2.114,1.359-3.473,1.661c-1.359,0.302-2.869,0.604-4.53,0.604h-3.473v-5.738H396.708z M407.883,57.384l-4.228,4.228
			l-4.077-4.228l4.077-4.077L407.883,57.384z"/>
		<path fill="#567DBF" d="M421.474,50.74c0.302,2.718,0.604,5.436,0.755,7.853c0.151,2.567,0.302,4.983,0.302,7.4
			c0,2.114,0,3.926,0,5.738c0,1.812,0,3.322,0,4.832s0,2.869-0.151,4.228c0,1.359-0.151,2.567-0.151,3.624l-5.738,0.906
			c0.302-4.832,0.453-9.061,0.453-12.685c0-1.51,0-2.869,0-4.077c-0.151-3.02-0.302-5.738-0.453-8.306
			c-0.151-2.567-0.302-5.134-0.604-7.551L421.474,50.74z"/>
		<path fill="#567DBF" d="M428.269,76.865c0.604,0.302,1.208,0.755,1.963,1.057s1.51,0.755,2.416,0.906
			c0.906,0.302,1.661,0.604,2.416,0.755c0.755,0.151,1.51,0.302,2.114,0.302c0.302,0,0.604,0,0.906,0s0.755,0,1.208-0.151
			c0.453,0,0.755-0.151,1.208-0.302s0.755-0.302,1.057-0.453s0.604-0.453,0.755-0.755s0.302-0.604,0.302-1.057l0,0
			c0-0.604-0.151-1.208-0.453-1.963s-0.755-1.51-1.359-2.265s-1.208-1.661-1.963-2.416s-1.51-1.661-2.265-2.265
			c-0.755-0.755-1.661-1.51-2.416-2.114s-1.51-1.208-2.265-1.661l3.171-4.832c1.359,0.906,2.718,1.963,3.926,3.02
			c1.359,1.208,2.567,2.416,3.624,3.624c1.057,1.359,2.114,2.718,2.869,4.077c0.755,1.359,1.359,2.869,1.661,4.228
			c0.151,0.755,0.302,1.661,0.302,2.416s-0.151,1.661-0.453,2.567c-0.302,1.057-0.906,1.963-1.812,3.02
			c-0.906,0.906-2.114,1.661-3.624,2.265c-1.208,0.453-2.567,0.604-4.077,0.604c-0.302,0-0.453,0-0.755,0
			c-0.906,0-1.963-0.151-2.869-0.302c-1.057-0.151-1.963-0.453-2.869-0.755c-0.906-0.302-1.812-0.755-2.718-1.057
			c-0.906-0.453-1.661-0.906-2.416-1.359L428.269,76.865z"/>
	</g>
</g>
</svg>
