<?xml version="1.0" encoding="utf-8"?>
<!-- Generator: Adobe Illustrator 22.1.0, SVG Export Plug-In . SVG Version: 6.00 Build 0)  -->
<svg version="1.1" id="Layer_1" xmlns="http://www.w3.org/2000/svg" xmlns:xlink="http://www.w3.org/1999/xlink" x="0px" y="0px"
	 viewBox="0 0 125 125" style="enable-background:new 0 0 125 125;" xml:space="preserve">
<style type="text/css">
	.st0{fill-rule:evenodd;clip-rule:evenodd;fill:#FFFFFF;enable-background:new    ;}
	.st1{fill-rule:evenodd;clip-rule:evenodd;fill:none;stroke:#FFFFFF;stroke-miterlimit:10;enable-background:new    ;}
	.st2{fill:#611A85;}
	.st3{fill:none;stroke:#611A85;stroke-width:2;stroke-miterlimit:10;}
</style>
<g>
	<circle class="st0" cx="62.5" cy="62.5" r="54.5"/>
	<circle class="st1" cx="62.5" cy="62.5" r="61.2"/>
	<g>
		<g>
			<g>
				<g>
					<path class="st2" d="M72.1,45.1l-8.7-15.1c-0.3-0.5-1-0.6-1.4-0.3c-0.1,0.1-0.2,0.2-0.3,0.3l-8.7,15.1
						c-0.3,0.5-0.1,1.1,0.4,1.4c0.2,0.1,0.3,0.1,0.5,0.1h17.4c0.6,0,1-0.4,1-1C72.2,45.5,72.2,45.3,72.1,45.1z M55.6,44.6l7-12l7,12
						H55.6z"/>
				</g>
			</g>
			<g>
				<g>
					<path class="st2" d="M91.6,71.7C91.6,71.7,91.6,71.7,91.6,71.7H75.6c-0.6,0-1,0.4-1,1c0,0,0,0,0,0v16.1c0,0.6,0.4,1,1,1
						c0,0,0,0,0,0h16.1c0.6,0,1-0.4,1-1c0,0,0,0,0,0V72.7C92.6,72.2,92.2,71.7,91.6,71.7z M90.6,87.8H76.6V73.8h14.1V87.8z"/>
				</g>
			</g>
			<g>
				<g>
					<path class="st2" d="M41.4,71.7c-5,0-9,4-9,9c0,5,4,9,9,9s9-4,9-9C50.5,75.8,46.4,71.8,41.4,71.7z M41.4,87.8c-3.9,0-7-3.1-7-7
						s3.1-7,7-7s7,3.1,7,7C48.5,84.7,45.3,87.8,41.4,87.8z"/>
				</g>
			</g>
			<g>
				<g>
					<path class="st2" d="M52.9,40.7l-0.8-1.8c-11.8,5.4-17.5,18.9-13.2,31.2l1.9-0.7C36.8,58.1,42,45.7,52.9,40.7z"/>
				</g>
			</g>
			<g>
				<g>
					<path class="st2" d="M71.2,83.1c-2.8,1.1-5.7,1.7-8.7,1.7c-3.2,0-6.3-0.6-9.2-1.9l-0.8,1.8c6.2,2.7,13.2,2.8,19.5,0.3
						L71.2,83.1z"/>
				</g>
			</g>
			<g>
				<g>
					<path class="st2" d="M74.7,39.7L74.7,39.7c-0.2-0.1-0.4-0.2-0.7-0.4l-0.9,1.8c0.2,0.1,0.4,0.2,0.6,0.3l0.5-0.9l-0.5,0.9
						c7.3,4.1,11.9,11.8,11.9,20.2c0,2.3-0.3,4.6-1,6.7l1.9,0.6C90,57.7,85,45.5,74.7,39.7z"/>
				</g>
			</g>
		</g>
		<g>
			<polyline class="st3" points="62.1,49.5 62.1,61.7 50.1,73.8 			"/>
			<line class="st3" x1="62.1" y1="61.7" x2="71.5" y2="71.1"/>
		</g>
	</g>
</g>
</svg>
