<?xml version="1.0" encoding="utf-8"?>
<!-- Generator: Adobe Illustrator 22.1.0, SVG Export Plug-In . SVG Version: 6.00 Build 0)  -->
<svg version="1.1" id="Layer_1" xmlns="http://www.w3.org/2000/svg" xmlns:xlink="http://www.w3.org/1999/xlink" x="0px" y="0px"
	 viewBox="0 0 125 125" style="enable-background:new 0 0 125 125;" xml:space="preserve">
<style type="text/css">
	.st0{fill-rule:evenodd;clip-rule:evenodd;fill:#FFFFFF;enable-background:new    ;}
	.st1{fill-rule:evenodd;clip-rule:evenodd;fill:none;stroke:#FFFFFF;stroke-miterlimit:10;enable-background:new    ;}
	.st2{fill:#611A85;}
	.st3{fill:none;stroke:#611A85;stroke-width:2;stroke-miterlimit:10;}
</style>
<g>
	<circle class="st0" cx="62.5" cy="62.5" r="54.5"/>
	<circle class="st1" cx="62.5" cy="62.5" r="61.2"/>
	<g>
		<g>
			<g>
				<path class="st2" d="M89.9,67.7H89v-8.2c0-1.3-0.6-2.4-1.6-3.1v-1.1c0-1.6-1.3-2.9-2.9-2.9h-0.7l2.6-3.8c0.9-1.3,0.5-3-0.7-3.9
					l-17.5-12c-0.6-0.4-1.4-0.6-2.1-0.4c-0.7,0.1-1.4,0.6-1.8,1.2L49,55.7h-4.2l1-10.3c0-0.1,0.1-0.2,0.2-0.3
					c1.3-0.5,2.4-1.4,3.2-2.6c0.1-0.1,0.2-0.1,0.3-0.1l6.6,0.7c0.5,0,0.9-0.3,0.9-0.8c0-0.5-0.3-0.9-0.8-0.9l-6.6-0.7
					c-0.8-0.1-1.5,0.3-1.9,0.9c-0.6,0.9-1.4,1.5-2.4,1.9c-0.7,0.3-1.2,0.9-1.3,1.7l-1,10.5H42l1.6-16.3c0.1-0.6,0.6-1,1.2-1
					l13.4,1.3c0.5,0,0.9-0.3,0.9-0.8c0-0.5-0.3-0.9-0.8-0.9l-13.4-1.3c-1.5-0.2-2.9,1-3.1,2.5l-1.3,13.1h-2.2
					c-1.6,0-2.9,1.3-2.9,2.9v0.8c-1.3,0.6-2.2,1.9-2.2,3.5v29.4c0,2.1,1.7,3.8,3.8,3.8h48.1c2.1,0,3.8-1.7,3.8-3.8v-8.2h0.9
					c1.1,0,1.9-0.9,1.9-1.9v-9.2C91.8,68.6,90.9,67.7,89.9,67.7z M84.4,54.1L84.4,54.1c0.7,0,1.2,0.5,1.2,1.2v0.4
					c-0.2,0-0.3,0-0.5,0h-3.7l1.1-1.6H84.4z M65.6,34.5c0.2-0.2,0.4-0.4,0.7-0.4c0.1,0,0.1,0,0.2,0c0.2,0,0.4,0.1,0.6,0.2l17.5,12
					c0.5,0.3,0.6,1,0.3,1.5l-5.5,8.1h-1.3l2.7-4c0.4-0.6,0.5-1.5,0.1-2.1c-0.5-0.9-0.7-2-0.6-3c0.1-0.8-0.2-1.5-0.9-1.9l-9.1-6.2
					c-0.6-0.4-1.4-0.5-2.1-0.1c-0.9,0.5-2,0.7-3,0.5c-0.8-0.1-1.5,0.2-2,0.9L52.4,55.7h-1.3L65.6,34.5z M66,49.1
					c-3.8,0-6.8,2.9-7.1,6.6h-4.4l10.2-14.9c0,0,0,0,0,0c0.1-0.1,0.2-0.1,0.3-0.1c0,0,0,0,0,0c1.4,0.2,2.8-0.1,4.1-0.7
					c0.1-0.1,0.2,0,0.3,0l9.1,6.2c0.1,0.1,0.1,0.2,0.1,0.3c-0.2,1.4,0.1,2.8,0.8,4c0.1,0.1,0,0.2,0,0.3L76,55.7h-2.9
					C72.8,52,69.7,49.1,66,49.1z M71.3,55.7H60.6c0.2-2.7,2.6-4.9,5.4-4.9C68.8,50.8,71.1,53,71.3,55.7z M37.2,55.3
					c0-0.7,0.5-1.2,1.2-1.2h2l-0.2,1.6h-3.1V55.3z M34.9,59.5c0-1.2,0.9-2.1,2.1-2.1h48.1c1.2,0,2.1,0.9,2.1,2.1v2.4H34.9V59.5z
					 M87.2,88.9c0,1.2-0.9,2.1-2.1,2.1H37c-1.2,0-2.1-0.9-2.1-2.1v-2.4h4.6c0.5,0,0.9-0.4,0.9-0.9c0-0.5-0.4-0.9-0.9-0.9h-4.6V63.7
					h52.3v4h-8.2h0c-2.6,0-4.8,1.5-5.9,3.7c0,0,0,0,0,0c0,0,0,0,0,0.1c-0.1,0.3-0.2,0.5-0.3,0.8c0,0,0,0,0,0
					c-0.2,0.6-0.3,1.3-0.3,1.9c0,3.6,2.9,6.5,6.5,6.5h0h8.2v4H45.1c-0.5,0-0.9,0.4-0.9,0.9c0,0.5,0.4,0.9,0.9,0.9h42.1V88.9z
					 M90.1,78.8c0,0.1-0.1,0.2-0.2,0.2H79.1c-1.8,0-3.4-1-4.2-2.5c0-0.1-0.1-0.1-0.1-0.2c-0.1-0.1-0.1-0.3-0.2-0.4
					c-0.2-0.5-0.3-1.1-0.3-1.7s0.1-1.1,0.3-1.7c0.1-0.1,0.1-0.3,0.2-0.4c0-0.1,0.1-0.1,0.1-0.2c0.8-1.5,2.4-2.5,4.2-2.5h10.8
					c0.1,0,0.2,0.1,0.2,0.2L90.1,78.8L90.1,78.8z"/>
			</g>
		</g>
		<g>
			<g>
				<path class="st2" d="M79.3,70.7c-1.9,0-3.5,1.6-3.5,3.5s1.6,3.5,3.5,3.5c1.9,0,3.5-1.6,3.5-3.5S81.2,70.7,79.3,70.7z M79.3,76
					c-1,0-1.8-0.8-1.8-1.8c0-1,0.8-1.8,1.8-1.8c1,0,1.8,0.8,1.8,1.8S80.2,76,79.3,76z"/>
			</g>
		</g>
	</g>
</g>
</svg>
