<?xml version="1.0" encoding="utf-8"?>
<!-- Generator: Adobe Illustrator 22.1.0, SVG Export Plug-In . SVG Version: 6.00 Build 0)  -->
<svg version="1.1" id="Layer_1" xmlns="http://www.w3.org/2000/svg" xmlns:xlink="http://www.w3.org/1999/xlink" x="0px" y="0px"
	 viewBox="0 0 125 125" style="enable-background:new 0 0 125 125;" xml:space="preserve">
<style type="text/css">
	.st0{fill-rule:evenodd;clip-rule:evenodd;fill:#FFFFFF;enable-background:new    ;}
	.st1{fill-rule:evenodd;clip-rule:evenodd;fill:none;stroke:#FFFFFF;stroke-miterlimit:10;enable-background:new    ;}
	.st2{fill:#611A85;}
	.st3{fill:none;stroke:#611A85;stroke-width:2;stroke-miterlimit:10;}
</style>
<g>
	<circle class="st0" cx="62.5" cy="62.5" r="54.5"/>
	<circle class="st1" cx="62.5" cy="62.5" r="61.2"/>
	<g>
		<g>
			<g>
				<path class="st2" d="M74.6,85.1c-0.3-0.5-1-0.6-1.5-0.3c-3.4,2.3-7.4,3.5-11.5,3.5c-11.7,0-21.1-9.7-21.1-21.5
					c0-4.3,1.2-8.5,3.6-12c0.3-0.5,0.2-1.2-0.3-1.5c-0.5-0.3-1.2-0.2-1.5,0.3c-2.6,3.9-4,8.5-4,13.2c0,6.3,2.4,12.3,6.8,16.8
					s10.2,6.9,16.5,6.9c4.5,0,8.9-1.3,12.7-3.8C74.7,86.3,74.9,85.6,74.6,85.1z"/>
			</g>
		</g>
		<g>
			<g>
				<path class="st2" d="M78.2,81.8c-0.4-0.4-1.1-0.4-1.5,0l0,0c-0.4,0.4-0.4,1.1,0,1.5c0.2,0.2,0.5,0.3,0.8,0.3
					c0.3,0,0.6-0.1,0.8-0.3l0,0C78.6,82.9,78.6,82.2,78.2,81.8z"/>
			</g>
		</g>
		<g>
			<g>
				<path class="st2" d="M82.5,52.5c0.2,0.2,0.5,0.3,0.8,0.3s0.5-0.1,0.8-0.3l1.8-1.8c1.3-1.3,1.3-3.4,0-4.7L82,42.1
					c-0.6-0.6-1.4-1-2.3-1c-0.9,0-1.7,0.3-2.3,1l-1.8,1.8c-0.2,0.2-0.3,0.5-0.3,0.8c0,0.3,0.1,0.6,0.3,0.8l0.5,0.5l-1.3,1.3
					c-2.7-1.9-5.8-3.2-9.1-3.8v-1.8h2.4c0.6,0,1.1-0.5,1.1-1.1v-4.8c0-0.6-0.5-1.1-1.1-1.1H55c-0.6,0-1.1,0.5-1.1,1.1v4.8
					c0,0.6,0.5,1.1,1.1,1.1h2.4v1.9c-3.1,0.6-6,1.8-8.6,3.5c-0.5,0.3-0.6,1-0.3,1.5c0.3,0.5,1,0.6,1.5,0.3c3.5-2.3,7.5-3.5,11.6-3.5
					c11.7,0,21.1,9.7,21.1,21.5c0,4-1.1,8-3.2,11.4c-0.3,0.5-0.2,1.2,0.3,1.5c0.2,0.1,0.4,0.2,0.6,0.2c0.4,0,0.7-0.2,0.9-0.5
					c2.3-3.7,3.5-8.1,3.5-12.5c0-4.9-1.4-9.6-4.1-13.5l1.3-1.3L82.5,52.5z M63.6,43.1c-0.7-0.1-1.4-0.1-2-0.1c-0.7,0-1.4,0-2,0.1
					v-1.6h4.1L63.6,43.1L63.6,43.1z M58.4,39.4h-2.4v-2.6H67v2.6h-2.4H58.4z M79.4,51.5C79,51,78.5,50.5,78,50c-0.5-0.5-1-1-1.5-1.4
					l1.1-1.1l2.9,2.9L79.4,51.5z M78.4,45.2C78.4,45.2,78.4,45.2,78.4,45.2l-0.5-0.5l1-1c0.2-0.2,0.5-0.3,0.8-0.3
					c0.3,0,0.6,0.1,0.8,0.3l3.8,3.9c0.4,0.4,0.4,1.2,0,1.6l-1,1l-0.5-0.5c0,0,0,0,0,0L78.4,45.2z"/>
			</g>
		</g>
		<g>
			<g>
				<path class="st2" d="M61.6,51.3c-0.6,0-1.1,0.5-1.1,1.1v2.4c0,0.6,0.5,1.1,1.1,1.1c0.6,0,1.1-0.5,1.1-1.1v-2.4
					C62.6,51.8,62.1,51.3,61.6,51.3z"/>
			</g>
		</g>
		<g>
			<g>
				<path class="st2" d="M72.3,55.8c-0.2-0.2-0.5-0.3-0.8-0.3c-0.3,0-0.6,0.1-0.8,0.3c-0.2,0.2-0.3,0.5-0.3,0.8
					c0,0.3,0.1,0.6,0.3,0.8c0.2,0.2,0.5,0.3,0.8,0.3c0.3,0,0.6-0.1,0.8-0.3c0.2-0.2,0.3-0.5,0.3-0.8C72.6,56.3,72.5,56,72.3,55.8z"
					/>
			</g>
		</g>
		<g>
			<g>
				<path class="st2" d="M75.7,65.7h-2.4c-0.6,0-1.1,0.5-1.1,1.1s0.5,1.1,1.1,1.1h2.4c0.6,0,1.1-0.5,1.1-1.1S76.3,65.7,75.7,65.7z"
					/>
			</g>
		</g>
		<g>
			<g>
				<path class="st2" d="M72.3,76.1c-0.2-0.2-0.5-0.3-0.8-0.3c-0.3,0-0.6,0.1-0.8,0.3c-0.2,0.2-0.3,0.5-0.3,0.8
					c0,0.3,0.1,0.6,0.3,0.8c0.2,0.2,0.5,0.3,0.8,0.3c0.3,0,0.6-0.1,0.8-0.3c0.2-0.2,0.3-0.5,0.3-0.8C72.6,76.6,72.5,76.3,72.3,76.1z
					"/>
			</g>
		</g>
		<g>
			<g>
				<path class="st2" d="M61.6,77.6c-0.6,0-1.1,0.5-1.1,1.1v2.4c0,0.6,0.5,1.1,1.1,1.1c0.6,0,1.1-0.5,1.1-1.1v-2.4
					C62.6,78.1,62.1,77.6,61.6,77.6z"/>
			</g>
		</g>
		<g>
			<g>
				<path class="st2" d="M52.3,76.1c-0.2-0.2-0.5-0.3-0.8-0.3c-0.3,0-0.6,0.1-0.8,0.3c-0.2,0.2-0.3,0.5-0.3,0.8
					c0,0.3,0.1,0.6,0.3,0.8c0.2,0.2,0.5,0.3,0.8,0.3c0.3,0,0.6-0.1,0.8-0.3c0.2-0.2,0.3-0.5,0.3-0.8C52.6,76.6,52.5,76.3,52.3,76.1z
					"/>
			</g>
		</g>
		<g>
			<g>
				<path class="st2" d="M49.8,65.7h-2.4c-0.6,0-1.1,0.5-1.1,1.1s0.5,1.1,1.1,1.1h2.4c0.6,0,1.1-0.5,1.1-1.1
					C50.9,66.1,50.4,65.7,49.8,65.7z"/>
			</g>
		</g>
		<g>
			<g>
				<path class="st2" d="M52.3,55.8c-0.2-0.2-0.5-0.3-0.8-0.3c-0.3,0-0.6,0.1-0.8,0.3c-0.2,0.2-0.3,0.5-0.3,0.8
					c0,0.3,0.1,0.6,0.3,0.8c0.2,0.2,0.5,0.3,0.8,0.3c0.3,0,0.6-0.1,0.8-0.3c0.2-0.2,0.3-0.5,0.3-0.8C52.6,56.3,52.5,56,52.3,55.8z"
					/>
			</g>
		</g>
		<g>
			<g>
				<path class="st2" d="M69.9,58.2c-0.3-0.4-0.9-0.4-1.3-0.2l-8.8,5.5c-0.1,0.1-0.2,0.1-0.3,0.2c-0.9,0.7-1.5,1.8-1.5,3
					c0,2,1.6,3.7,3.6,3.7c1.2,0,2.3-0.6,3-1.5c0.1-0.1,0.2-0.2,0.2-0.3l5.4-9C70.3,59.1,70.3,58.6,69.9,58.2z M62.9,67.5l-0.1,0.1
					c-0.3,0.4-0.7,0.7-1.2,0.7c-0.8,0-1.5-0.7-1.5-1.5c0-0.5,0.3-1,0.7-1.3l0.1-0.1c0.2-0.1,0.4-0.2,0.7-0.2c0.8,0,1.5,0.7,1.5,1.5
					C63.1,67,63,67.2,62.9,67.5z M64.6,64.6c-0.3-0.4-0.6-0.7-0.9-1l2.4-1.5L64.6,64.6z"/>
			</g>
		</g>
		<g>
			<g>
				<path class="st2" d="M61.6,47.8C51.3,47.8,43,56.3,43,66.7s8.3,18.9,18.6,18.9s18.6-8.5,18.6-18.9S71.8,47.8,61.6,47.8z
					 M61.6,83.5c-9.1,0-16.4-7.5-16.4-16.7S52.5,50,61.6,50C70.6,50,78,57.5,78,66.7S70.6,83.5,61.6,83.5z"/>
			</g>
		</g>
		<g>
			<g>
				<path class="st2" d="M46.7,49.9c-0.2-0.2-0.5-0.3-0.8-0.3s-0.6,0.1-0.8,0.3c-0.2,0.2-0.3,0.5-0.3,0.8c0,0.3,0.1,0.6,0.3,0.8
					c0.2,0.2,0.5,0.3,0.8,0.3s0.6-0.1,0.8-0.3c0.2-0.2,0.3-0.5,0.3-0.8C47,50.4,46.9,50.1,46.7,49.9z"/>
			</g>
		</g>
	</g>
</g>
</svg>
