<?xml version="1.0" encoding="utf-8"?>
<!-- Generator: Adobe Illustrator 22.1.0, SVG Export Plug-In . SVG Version: 6.00 Build 0)  -->
<svg version="1.1" id="Layer_1" xmlns="http://www.w3.org/2000/svg" xmlns:xlink="http://www.w3.org/1999/xlink" x="0px" y="0px"
	 viewBox="0 0 125 125" style="enable-background:new 0 0 125 125;" xml:space="preserve">
<style type="text/css">
	.st0{fill-rule:evenodd;clip-rule:evenodd;fill:#FFFFFF;enable-background:new    ;}
	.st1{fill-rule:evenodd;clip-rule:evenodd;fill:none;stroke:#FFFFFF;stroke-miterlimit:10;enable-background:new    ;}
	.st2{fill:#611A85;}
	.st3{fill:none;stroke:#611A85;stroke-width:2;stroke-miterlimit:10;}
</style>
<g>
	<circle class="st0" cx="62.5" cy="62.5" r="54.5"/>
	<circle class="st1" cx="62.5" cy="62.5" r="61.2"/>
	<g>
		<g>
			<g>
				<path class="st2" d="M75.9,51.7h-12c-0.5,0-0.9,0.4-0.9,0.9s0.4,0.9,0.9,0.9h12c0.5,0,0.9-0.4,0.9-0.9S76.4,51.7,75.9,51.7z"/>
			</g>
		</g>
		<g>
			<g>
				<path class="st2" d="M75.9,61h-12c-0.5,0-0.9,0.4-0.9,0.9c0,0.5,0.4,0.9,0.9,0.9h12c0.5,0,0.9-0.4,0.9-0.9
					C76.8,61.3,76.4,61,75.9,61z"/>
			</g>
		</g>
		<g>
			<g>
				<path class="st2" d="M75.9,70.2h-12c-0.5,0-0.9,0.4-0.9,0.9c0,0.5,0.4,0.9,0.9,0.9h12c0.5,0,0.9-0.4,0.9-0.9
					C76.8,70.6,76.4,70.2,75.9,70.2z"/>
			</g>
		</g>
		<g>
			<g>
				<path class="st2" d="M59.3,49.9h-3.7c-0.5,0-0.9,0.4-0.9,0.9v3.7c0,0.5,0.4,0.9,0.9,0.9h3.7c0.5,0,0.9-0.4,0.9-0.9v-3.7
					C60.2,50.3,59.8,49.9,59.3,49.9z M58.4,53.6h-2v-2h2V53.6z"/>
			</g>
		</g>
		<g>
			<g>
				<path class="st2" d="M59.3,59.1h-3.7c-0.5,0-0.9,0.4-0.9,0.9v3.7c0,0.5,0.4,0.9,0.9,0.9h3.7c0.5,0,0.9-0.4,0.9-0.9V60
					C60.2,59.5,59.8,59.1,59.3,59.1z M58.4,62.8h-2v-2h2V62.8z"/>
			</g>
		</g>
		<g>
			<g>
				<path class="st2" d="M59.3,68.3h-3.7c-0.5,0-0.9,0.4-0.9,0.9v3.7c0,0.5,0.4,0.9,0.9,0.9h3.7c0.5,0,0.9-0.4,0.9-0.9v-3.7
					C60.2,68.7,59.8,68.3,59.3,68.3z M58.4,72h-2v-2h2V72z"/>
			</g>
		</g>
		<g>
			<g>
				<g>
					<path class="st2" d="M86,74.3c0.3,0.1,0.6,0.3,0.7,0.3C86.7,74.5,86.5,74.4,86,74.3c-0.3-0.1-0.4-0.2-0.4-0.2
						C85.7,74.1,85.8,74.2,86,74.3c-1.6-0.7-3.3-0.5-4.7,0.4V49.1c0-0.5-0.4-0.9-0.9-0.9c-0.5,0-0.9,0.4-0.9,0.9v25.1
						c-1.3-0.5-2.7-0.5-4,0.2c-2,1-3.3,3.1-3.3,5.4c0,0.5,0.1,0.9,0.2,1.4H52.7c-0.5,0-0.9-0.4-0.9-0.9V40.5c0-0.5,0.4-0.9,0.9-0.9
						h2v4.7c0,0.5,0.4,0.9,0.9,0.9h3.7c0.5,0,0.9-0.4,0.9-0.9v-4.7H63v4.7c0,0.5,0.4,0.9,0.9,0.9h3.7c0.5,0,0.9-0.4,0.9-0.9v-4.7
						h2.9v4.7c0,0.5,0.4,0.9,0.9,0.9h3.7c0.5,0,0.9-0.4,0.9-0.9v-4.7h2c0.5,0,0.9,0.4,0.9,0.9v3.8c0,0.5,0.4,0.9,0.9,0.9
						c0.5,0,0.9-0.4,0.9-0.9v-3.8c0-1.4-1.2-2.6-2.6-2.6h-2v-2.4c0-0.5-0.4-0.9-0.9-0.9h-3.7c-0.5,0-0.9,0.4-0.9,0.9v2.4h-2.9v-2.4
						c0-0.5-0.4-0.9-0.9-0.9h-3.7c-0.5,0-0.9,0.4-0.9,0.9v2.4h-2.9v-2.4c0-0.5-0.4-0.9-0.9-0.9h-3.7c-0.5,0-0.9,0.4-0.9,0.9v2.4h-2
						c-1.4,0-2.6,1.2-2.6,2.6v39.9c0,1.4,1.2,2.6,2.6,2.6h20.6c2.1,3.6,7,7.1,7.2,7.2c0.3,0.2,0.7,0.2,1,0c0.1-0.1,2-1.5,4-3.4
						c2.8-2.7,4.2-5.1,4.2-7C89.7,77.4,88.2,75.1,86,74.3z M73.1,38.8v-2.4h2v2.4v4.7h-2V38.8z M64.8,38.8v-2.4h2v2.4v4.7h-2V38.8z
						 M56.5,38.8v-2.4h2v2.4v4.7h-2V38.8z M81,88.4c-1.3-1-5-4-6.4-6.7c0,0,0,0,0,0C74.2,81,74,80.4,74,79.8c0-1.7,0.9-3.2,2.4-3.9
						c1-0.5,2.1-0.4,3.1,0.1c0.5,0.3,1,1,1.6,1c0.5,0,0.9-0.6,1.4-0.8c1-0.6,2-0.7,3.1-0.3c1.5,0.6,2.5,2.2,2.5,4
						C87.9,82.6,83.3,86.6,81,88.4z"/>
					<path class="st2" d="M85.6,74.1C85.6,74.1,85.6,74.1,85.6,74.1L85.6,74.1z"/>
					<path class="st2" d="M86.7,74.5C86.7,74.5,86.7,74.5,86.7,74.5L86.7,74.5z"/>
				</g>
			</g>
		</g>
		<g>
			<g>
				<path class="st2" d="M43.6,34.7c-2.4,0-4.3,1.8-4.5,4.2H38c-1.4,0-2.6,1.2-2.6,2.6v14.4c0,0.5,0.4,0.9,0.9,0.9
					c0.5,0,0.9-0.4,0.9-0.9V41.4c0-0.5,0.4-0.9,0.9-0.9h1.1v15.3v9.7c0,0.5,0.4,0.9,0.9,0.9c0.5,0,0.9-0.4,0.9-0.9v-8.8h5.6v24.6
					h-5.6V69.9c0-0.5-0.4-0.9-0.9-0.9c-0.5,0-0.9,0.4-0.9,0.9v12.2c0,0.2,0.1,0.4,0.2,0.5l3.5,4.4v2.5c0,0.5,0.4,0.9,0.9,0.9
					c0.5,0,0.9-0.4,0.9-0.9V87l3.5-4.4c0.1-0.2,0.2-0.3,0.2-0.5V55.8V39.2C48.2,36.7,46.1,34.7,43.6,34.7z M43.6,85.3L41.7,83h3.8
					L43.6,85.3z M46.4,55h-5.6V39.2c0-1.6,1.3-2.8,2.8-2.8c1.6,0,2.8,1.3,2.8,2.8V55z"/>
			</g>
		</g>
	</g>
</g>
</svg>
