<?xml version="1.0" encoding="utf-8"?>
<!-- Generator: Adobe Illustrator 17.0.0, SVG Export Plug-In . SVG Version: 6.00 Build 0)  -->
<!DOCTYPE svg PUBLIC "-//W3C//DTD SVG 1.1//EN" "http://www.w3.org/Graphics/SVG/1.1/DTD/svg11.dtd">
<svg version="1.1" id="Layer_1" xmlns="http://www.w3.org/2000/svg" xmlns:xlink="http://www.w3.org/1999/xlink" x="0px" y="0px"
	 width="50px" height="50px" viewBox="0 0 50 50" enable-background="new 0 0 50 50" xml:space="preserve">
<g>
	
		<circle fill-rule="evenodd" clip-rule="evenodd" fill="none" stroke="#2B3A60" stroke-width="3" stroke-miterlimit="10" cx="25" cy="25" r="22.5"/>
	<g>
		<path fill-rule="evenodd" clip-rule="evenodd" fill="#2B3A60" d="M21.291,36.321L21.291,36.321c-1.145,0-2.074-0.928-2.074-2.074
			V15.753c0-1.145,0.928-2.074,2.074-2.074h0c1.145,0,2.074,0.928,2.074,2.074v18.494C23.365,35.392,22.437,36.321,21.291,36.321z"
			/>
		<path fill-rule="evenodd" clip-rule="evenodd" fill="#2B3A60" d="M28.709,36.321L28.709,36.321c-1.145,0-2.074-0.928-2.074-2.074
			V15.753c0-1.145,0.928-2.074,2.074-2.074h0c1.145,0,2.074,0.928,2.074,2.074v18.494C30.782,35.392,29.854,36.321,28.709,36.321z"
			/>
	</g>
</g>
</svg>
